<?xml version="1.0" standalone="no"?>
<!DOCTYPE svg PUBLIC "-//W3C//DTD SVG 20010904//EN"
 "http://www.w3.org/TR/2001/REC-SVG-20010904/DTD/svg10.dtd">
<svg version="1.0" xmlns="http://www.w3.org/2000/svg"
 width="918.000000pt" height="628.000000pt" viewBox="0 0 918.000000 628.000000"
 preserveAspectRatio="xMidYMid meet">

<g transform="translate(0.000000,628.000000) scale(0.100000,-0.100000)"
fill="#000000" stroke="none">
<path d="M4190 6080 c0 -5 5 -10 10 -10 6 0 10 5 10 10 0 6 -4 10 -10 10 -5 0
-10 -4 -10 -10z"/>
<path d="M4920 6050 c0 -5 5 -10 11 -10 5 0 7 5 4 10 -3 6 -8 10 -11 10 -2 0
-4 -4 -4 -10z"/>
<path d="M5140 6000 c0 -5 5 -10 10 -10 6 0 10 5 10 10 0 6 -4 10 -10 10 -5 0
-10 -4 -10 -10z"/>
<path d="M4380 5960 c0 -5 5 -10 10 -10 6 0 10 5 10 10 0 6 -4 10 -10 10 -5 0
-10 -4 -10 -10z"/>
<path d="M3660 5940 c0 -5 5 -10 10 -10 6 0 10 5 10 10 0 6 -4 10 -10 10 -5 0
-10 -4 -10 -10z"/>
<path d="M3345 5906 c-37 -16 -92 -77 -101 -112 -13 -51 1 -131 30 -168 82
-109 253 -92 311 30 33 70 15 169 -39 216 -52 47 -139 61 -201 34z m124 -109
c6 -8 8 -17 5 -20 -4 -4 4 -11 18 -16 46 -17 48 -76 2 -87 -28 -7 -51 9 -56
38 -3 19 -5 18 -35 -12 -25 -26 -37 -31 -57 -26 -45 11 -45 71 0 82 19 5 23
11 19 25 -4 13 -1 19 9 19 9 0 16 -4 16 -9 0 -4 14 -8 30 -7 20 1 29 5 25 14
-6 16 10 15 24 -1z"/>
<path d="M3402 5751 c11 -17 14 -18 35 -4 31 20 29 23 -12 23 -32 0 -34 -2
-23 -19z"/>
<path d="M3337 5743 c-12 -12 -7 -51 7 -56 8 -3 22 1 33 8 17 14 17 14 -5 15
-19 0 -22 4 -17 20 6 19 -5 27 -18 13z"/>
<path d="M3484 5729 c7 -23 6 -23 -8 -5 -14 17 -16 17 -22 3 -8 -23 3 -37 32
-37 22 0 25 4 22 27 -2 14 -9 28 -17 31 -9 3 -11 -2 -7 -19z"/>
<path d="M3370 5730 c0 -5 5 -10 11 -10 5 0 7 5 4 10 -3 6 -8 10 -11 10 -2 0
-4 -4 -4 -10z"/>
<path d="M5345 5900 c3 -5 8 -10 11 -10 2 0 4 5 4 10 0 6 -5 10 -11 10 -5 0
-7 -4 -4 -10z"/>
<path d="M4855 5890 c3 -5 8 -10 11 -10 2 0 4 5 4 10 0 6 -5 10 -11 10 -5 0
-7 -4 -4 -10z"/>
<path d="M5675 5880 c3 -5 8 -10 11 -10 2 0 4 5 4 10 0 6 -5 10 -11 10 -5 0
-7 -4 -4 -10z"/>
<path d="M4200 5870 c0 -5 5 -10 10 -10 6 0 10 5 10 10 0 6 -4 10 -10 10 -5 0
-10 -4 -10 -10z"/>
<path d="M4960 5870 c0 -5 5 -10 10 -10 6 0 10 5 10 10 0 6 -4 10 -10 10 -5 0
-10 -4 -10 -10z"/>
<path d="M3775 5780 c4 -6 11 -8 16 -5 14 9 11 15 -7 15 -8 0 -12 -5 -9 -10z"/>
<path d="M6040 5780 c0 -5 5 -10 10 -10 6 0 10 5 10 10 0 6 -4 10 -10 10 -5 0
-10 -4 -10 -10z"/>
<path d="M4645 5770 c-3 -5 1 -10 10 -10 9 0 13 5 10 10 -3 6 -8 10 -10 10 -2
0 -7 -4 -10 -10z"/>
<path d="M4430 5763 c-30 -11 -60 -47 -66 -79 -8 -42 1 -68 35 -102 23 -24 33
-27 71 -24 62 6 100 42 100 95 0 81 -69 136 -140 110z m80 -83 c0 -27 -5 -43
-15 -47 -25 -9 -31 6 -9 21 10 8 16 17 12 21 -9 9 -50 -14 -44 -24 8 -12 -21
-47 -30 -38 -4 4 -2 13 4 19 7 7 12 22 12 35 0 14 10 28 28 37 39 22 42 20 42
-24z"/>
<path d="M3960 5749 c0 -5 5 -7 10 -4 6 3 10 8 10 11 0 2 -4 4 -10 4 -5 0 -10
-5 -10 -11z"/>
<path d="M4336 5741 c-4 -5 -2 -12 3 -15 5 -4 12 -2 15 3 4 5 2 12 -3 15 -5 4
-12 2 -15 -3z"/>
<path d="M4664 5683 c-4 -16 -14 -37 -23 -47 -15 -18 -15 -18 6 -8 25 14 83
-2 83 -23 0 -8 4 -16 9 -19 4 -3 6 6 3 19 -2 14 -8 25 -14 25 -5 0 -4 9 2 20
15 28 -4 60 -35 60 -19 0 -26 -7 -31 -27z"/>
<path d="M5310 5700 c0 -5 5 -10 10 -10 6 0 10 5 10 10 0 6 -4 10 -10 10 -5 0
-10 -4 -10 -10z"/>
<path d="M5580 5700 c0 -5 5 -10 10 -10 6 0 10 5 10 10 0 6 -4 10 -10 10 -5 0
-10 -4 -10 -10z"/>
<path d="M4620 5686 c0 -9 5 -16 10 -16 6 0 10 4 10 9 0 6 -4 13 -10 16 -5 3
-10 -1 -10 -9z"/>
<path d="M5785 5690 c-3 -5 -1 -10 4 -10 6 0 11 5 11 10 0 6 -2 10 -4 10 -3 0
-8 -4 -11 -10z"/>
<path d="M2900 5640 c0 -5 5 -10 10 -10 6 0 10 5 10 10 0 6 -4 10 -10 10 -5 0
-10 -4 -10 -10z"/>
<path d="M5098 5643 c7 -3 16 -2 19 1 4 3 -2 6 -13 5 -11 0 -14 -3 -6 -6z"/>
<path d="M4573 5589 c-43 -30 -58 -48 -25 -30 21 12 79 60 72 60 -3 0 -24 -13
-47 -30z"/>
<path d="M6035 5610 c3 -5 8 -10 11 -10 2 0 4 5 4 10 0 6 -5 10 -11 10 -5 0
-7 -4 -4 -10z"/>
<path d="M6230 5590 c0 -5 5 -10 10 -10 6 0 10 5 10 10 0 6 -4 10 -10 10 -5 0
-10 -4 -10 -10z"/>
<path d="M5095 5580 c-3 -5 -1 -10 4 -10 6 0 11 5 11 10 0 6 -2 10 -4 10 -3 0
-8 -4 -11 -10z"/>
<path d="M5283 5525 c49 -52 67 -78 67 -98 0 -37 47 -58 67 -31 25 34 7 64
-36 64 -18 0 -47 21 -96 68 l-70 67 68 -70z"/>
<path d="M5420 5560 c0 -5 5 -10 10 -10 6 0 10 5 10 10 0 6 -4 10 -10 10 -5 0
-10 -4 -10 -10z"/>
<path d="M3600 5550 c0 -5 5 -10 10 -10 6 0 10 5 10 10 0 6 -4 10 -10 10 -5 0
-10 -4 -10 -10z"/>
<path d="M4230 5530 c0 -5 5 -10 10 -10 6 0 10 5 10 10 0 6 -4 10 -10 10 -5 0
-10 -4 -10 -10z"/>
<path d="M4460 5520 c0 -11 4 -20 9 -20 5 0 15 -2 23 -5 9 -4 13 3 13 20 0 19
-5 25 -22 25 -16 0 -23 -6 -23 -20z"/>
<path d="M4720 5521 c0 -11 4 -22 9 -25 4 -3 6 6 3 19 -5 30 -12 33 -12 6z"/>
<path d="M4765 5518 c4 -13 11 -27 16 -33 5 -5 4 5 -2 23 -12 36 -24 44 -14
10z"/>
<path d="M4540 5520 c0 -5 5 -10 10 -10 6 0 10 5 10 10 0 6 -4 10 -10 10 -5 0
-10 -4 -10 -10z"/>
<path d="M5640 5510 c0 -5 5 -10 10 -10 6 0 10 5 10 10 0 6 -4 10 -10 10 -5 0
-10 -4 -10 -10z"/>
<path d="M3340 5500 c0 -5 5 -10 10 -10 6 0 10 5 10 10 0 6 -4 10 -10 10 -5 0
-10 -4 -10 -10z"/>
<path d="M4915 5490 c3 -5 10 -10 16 -10 5 0 9 5 9 10 0 6 -7 10 -16 10 -8 0
-12 -4 -9 -10z"/>
<path d="M3045 5480 c3 -5 8 -10 11 -10 2 0 4 5 4 10 0 6 -5 10 -11 10 -5 0
-7 -4 -4 -10z"/>
<path d="M4010 5480 c0 -5 5 -10 11 -10 5 0 7 5 4 10 -3 6 -8 10 -11 10 -2 0
-4 -4 -4 -10z"/>
<path d="M3260 5470 c0 -5 5 -10 10 -10 6 0 10 5 10 10 0 6 -4 10 -10 10 -5 0
-10 -4 -10 -10z"/>
<path d="M3577 5463 c-10 -10 -8 -41 3 -48 5 -3 18 0 29 7 15 9 17 16 10 30
-10 18 -30 24 -42 11z"/>
<path d="M4550 5466 c0 -2 8 -10 18 -17 15 -13 16 -12 3 4 -13 16 -21 21 -21
13z"/>
<path d="M5180 5456 c6 -6 10 -20 10 -32 0 -26 29 -39 61 -29 16 5 19 14 17
38 -3 31 -5 32 -50 32 -32 1 -44 -3 -38 -9z"/>
<path d="M5930 5460 c0 -5 5 -10 10 -10 6 0 10 5 10 10 0 6 -4 10 -10 10 -5 0
-10 -4 -10 -10z"/>
<path d="M2780 5429 c0 -5 5 -7 10 -4 6 3 10 8 10 11 0 2 -4 4 -10 4 -5 0 -10
-5 -10 -11z"/>
<path d="M3759 5430 c-22 -13 -13 -60 11 -60 10 0 26 7 34 16 9 8 22 12 28 9
7 -4 0 4 -17 19 -34 29 -34 29 -56 16z"/>
<path d="M4590 5436 c0 -2 8 -10 18 -17 15 -13 16 -12 3 4 -13 16 -21 21 -21
13z"/>
<path d="M4705 5430 c3 -5 8 -10 11 -10 2 0 4 5 4 10 0 6 -5 10 -11 10 -5 0
-7 -4 -4 -10z"/>
<path d="M5711 5426 c-12 -14 -35 -83 -24 -73 3 4 15 0 27 -8 11 -8 28 -15 37
-15 38 0 65 70 37 98 -16 16 -63 15 -77 -2z"/>
<path d="M5820 5430 c0 -5 5 -10 10 -10 6 0 10 5 10 10 0 6 -4 10 -10 10 -5 0
-10 -4 -10 -10z"/>
<path d="M4265 5405 c-14 -13 -25 -29 -25 -35 0 -5 -6 -10 -12 -10 -7 0 -19
-4 -27 -9 -12 -8 -12 -12 -2 -25 18 -22 30 -20 40 7 8 20 10 20 16 4 8 -19
-12 -50 -26 -41 -5 3 -8 2 -7 -3 1 -4 -4 -19 -11 -31 -23 -42 -4 -34 27 11 27
39 34 43 62 39 61 -9 97 68 48 102 -32 22 -55 20 -83 -9z"/>
<path d="M6140 5410 c0 -5 5 -10 10 -10 6 0 10 5 10 10 0 6 -4 10 -10 10 -5 0
-10 -4 -10 -10z"/>
<path d="M4630 5406 c0 -2 8 -10 18 -17 15 -13 16 -12 3 4 -13 16 -21 21 -21
13z"/>
<path d="M5578 5403 c12 -2 30 -2 40 0 9 3 -1 5 -23 4 -22 0 -30 -2 -17 -4z"/>
<path d="M6340 5400 c0 -5 5 -10 10 -10 6 0 10 5 10 10 0 6 -4 10 -10 10 -5 0
-10 -4 -10 -10z"/>
<path d="M3254 5390 c-35 -14 -64 -59 -64 -101 0 -45 37 -94 77 -102 43 -9 99
12 114 42 7 14 15 28 16 30 2 3 18 -9 36 -25 l32 -29 -30 33 c-16 18 -34 52
-40 75 -16 65 -81 101 -141 77z m98 -77 c23 -21 23 -36 -1 -57 -12 -11 -21
-14 -26 -7 -8 15 -62 14 -71 -1 -5 -7 -11 -5 -21 7 -20 28 -16 42 15 58 37 20
82 20 104 0z"/>
<path d="M3275 5310 c4 -6 11 -8 16 -5 14 9 11 15 -7 15 -8 0 -12 -5 -9 -10z"/>
<path d="M3310 5309 c0 -5 5 -7 10 -4 6 3 10 8 10 11 0 2 -4 4 -10 4 -5 0 -10
-5 -10 -11z"/>
<path d="M3700 5380 c0 -5 5 -10 10 -10 6 0 10 5 10 10 0 6 -4 10 -10 10 -5 0
-10 -4 -10 -10z"/>
<path d="M5450 5380 c0 -5 5 -10 10 -10 6 0 10 5 10 10 0 6 -4 10 -10 10 -5 0
-10 -4 -10 -10z"/>
<path d="M3850 5349 c45 -40 79 -63 85 -57 3 2 -23 23 -58 46 -49 33 -55 36
-27 11z"/>
<path d="M4670 5376 c0 -2 8 -10 18 -17 15 -13 16 -12 3 4 -13 16 -21 21 -21
13z"/>
<path d="M3715 5334 c-9 -15 -12 -23 -6 -20 11 7 35 46 28 46 -3 0 -12 -12
-22 -26z"/>
<path d="M2920 5340 c0 -5 5 -10 11 -10 5 0 7 5 4 10 -3 6 -8 10 -11 10 -2 0
-4 -4 -4 -10z"/>
<path d="M4720 5310 c5 -31 9 -35 35 -35 24 0 31 5 33 24 5 30 -8 42 -45 45
-28 2 -29 1 -23 -34z"/>
<path d="M5637 5333 c-3 -5 -2 -15 2 -22 5 -7 11 -9 14 -4 3 5 2 15 -2 22 -5
7 -11 9 -14 4z"/>
<path d="M4580 5320 c0 -5 4 -10 9 -10 6 0 13 5 16 10 3 6 -1 10 -9 10 -9 0
-16 -4 -16 -10z"/>
<path d="M5070 5319 c0 -5 5 -7 10 -4 6 3 10 8 10 11 0 2 -4 4 -10 4 -5 0 -10
-5 -10 -11z"/>
<path d="M4856 5302 c4 -9 9 -29 11 -44 3 -15 13 -28 24 -31 26 -7 25 24 -2
41 -15 10 -18 16 -10 26 9 10 7 15 -10 19 -16 4 -19 2 -13 -11z"/>
<path d="M4409 5288 c13 -15 21 -34 18 -42 -10 -26 27 -39 47 -17 16 18 10 28
-17 29 -5 0 -23 13 -40 29 -31 27 -31 27 -8 1z"/>
<path d="M4610 5290 c-7 -13 -5 -21 5 -30 19 -16 45 -6 45 19 0 26 -37 35 -50
11z"/>
<path d="M4156 5292 c-3 -5 8 -6 25 -4 16 2 29 6 29 8 0 8 -49 4 -54 -4z"/>
<path d="M5375 5295 c-5 -2 -22 -6 -37 -9 -39 -9 -35 -26 5 -25 27 0 29 2 12
9 -11 5 -14 9 -7 9 7 1 20 -3 30 -8 9 -5 25 -12 35 -15 9 -3 17 -14 17 -25 0
-11 5 -23 10 -26 6 -3 10 -14 9 -23 0 -14 -2 -13 -9 3 -8 19 -9 19 -9 -2 -1
-13 4 -23 10 -23 7 0 9 -10 5 -25 -4 -14 -2 -25 3 -25 5 0 13 20 16 45 4 24
13 50 21 56 30 25 8 71 -31 65 -11 -2 -31 2 -45 9 -14 7 -29 11 -35 10z"/>
<path d="M5550 5290 c-9 -6 -10 -10 -3 -10 6 0 15 5 18 10 8 12 4 12 -15 0z"/>
<path d="M2415 5280 c3 -5 8 -10 11 -10 2 0 4 5 4 10 0 6 -5 10 -11 10 -5 0
-7 -4 -4 -10z"/>
<path d="M3669 5273 c-13 -16 -12 -17 4 -4 9 7 17 15 17 17 0 8 -8 3 -21 -13z"/>
<path d="M5780 5271 c-5 -11 -10 -28 -10 -39 0 -20 29 -52 48 -52 7 0 12 -11
12 -24 0 -14 4 -27 8 -30 5 -3 6 9 4 25 -5 31 22 63 43 51 5 -3 4 2 -3 11 -8
9 -11 20 -8 25 3 5 -2 18 -10 30 -20 28 -69 30 -84 3z"/>
<path d="M6450 5260 c0 -5 5 -10 10 -10 6 0 10 5 10 10 0 6 -4 10 -10 10 -5 0
-10 -4 -10 -10z"/>
<path d="M3995 5240 c10 -11 20 -20 23 -20 3 0 -3 9 -13 20 -10 11 -20 20 -23
20 -3 0 3 -9 13 -20z"/>
<path d="M3639 5233 c-13 -16 -12 -17 4 -4 9 7 17 15 17 17 0 8 -8 3 -21 -13z"/>
<path d="M5301 5234 c0 -11 3 -14 6 -6 3 7 2 16 -1 19 -3 4 -6 -2 -5 -13z"/>
<path d="M3540 5230 c0 -5 4 -10 9 -10 6 0 13 5 16 10 3 6 -1 10 -9 10 -9 0
-16 -4 -16 -10z"/>
<path d="M4166 5204 c-4 -10 -1 -14 6 -12 15 5 23 28 10 28 -5 0 -13 -7 -16
-16z"/>
<path d="M4275 5195 c-26 -11 -27 -13 -8 -14 27 -1 53 9 53 20 0 12 -9 11 -45
-6z"/>
<path d="M5278 5203 c-10 -2 -18 -9 -18 -14 0 -13 43 -5 48 9 4 12 0 13 -30 5z"/>
<path d="M3482 5175 c23 -25 26 -35 19 -65 -6 -31 -4 -37 18 -51 54 -34 121
29 82 77 -22 27 -42 34 -65 22 -14 -8 -25 -3 -50 19 l-31 28 27 -30z"/>
<path d="M3599 5183 c-13 -16 -12 -17 4 -4 16 13 21 21 13 21 -2 0 -10 -8 -17
-17z"/>
<path d="M3750 5189 c0 -5 5 -7 10 -4 6 3 10 8 10 11 0 2 -4 4 -10 4 -5 0 -10
-5 -10 -11z"/>
<path d="M4108 5190 c-15 -5 -30 -5 -34 -1 -4 3 -4 1 -1 -6 4 -6 2 -24 -3 -38
-13 -34 -5 -62 21 -76 26 -14 54 -4 74 27 15 23 15 27 1 43 -9 10 -16 25 -16
34 0 22 -10 26 -42 17z"/>
<path d="M5933 5193 c-18 -6 -16 -40 2 -47 24 -9 43 3 38 24 -5 21 -21 29 -40
23z"/>
<path d="M6195 5190 c-3 -5 1 -10 10 -10 9 0 13 5 10 10 -3 6 -8 10 -10 10 -2
0 -7 -4 -10 -10z"/>
<path d="M6680 5190 c0 -5 5 -10 10 -10 6 0 10 5 10 10 0 6 -4 10 -10 10 -5 0
-10 -4 -10 -10z"/>
<path d="M4953 5164 c15 -16 27 -36 27 -44 0 -11 3 -11 12 -2 6 6 10 13 7 14
-2 2 -20 17 -39 33 l-35 30 28 -31z"/>
<path d="M2800 5170 c0 -5 5 -10 11 -10 5 0 7 5 4 10 -3 6 -8 10 -11 10 -2 0
-4 -4 -4 -10z"/>
<path d="M5070 5145 c0 -10 7 -15 18 -13 21 4 19 22 -2 26 -10 2 -16 -3 -16
-13z"/>
<path d="M2190 5140 c0 -5 5 -10 11 -10 5 0 7 5 4 10 -3 6 -8 10 -11 10 -2 0
-4 -4 -4 -10z"/>
<path d="M3660 5135 c-13 -16 -5 -35 15 -35 22 0 28 19 12 35 -13 12 -17 13
-27 0z"/>
<path d="M6685 5118 c-64 -35 -86 -88 -65 -153 30 -91 171 -101 215 -15 32 62
9 136 -51 165 -37 18 -71 19 -99 3z m53 -45 c-5 -18 15 -52 33 -58 28 -9 23
-38 -8 -57 -19 -10 -35 -13 -50 -7 -41 15 -51 69 -12 69 15 0 17 5 13 30 -5
23 -3 30 10 30 9 0 15 -3 14 -7z"/>
<path d="M6385 5110 c-3 -5 -1 -10 4 -10 6 0 11 5 11 10 0 6 -2 10 -4 10 -3 0
-8 -4 -11 -10z"/>
<path d="M2350 5100 c0 -5 5 -10 10 -10 6 0 10 5 10 10 0 6 -4 10 -10 10 -5 0
-10 -4 -10 -10z"/>
<path d="M5570 5029 c0 -5 5 -7 10 -4 6 3 10 8 10 11 0 2 -4 4 -10 4 -5 0 -10
-5 -10 -11z"/>
<path d="M6060 5021 c0 -6 5 -13 10 -16 6 -3 10 1 10 9 0 9 -4 16 -10 16 -5 0
-10 -4 -10 -9z"/>
<path d="M6555 5020 c-3 -5 -1 -10 4 -10 6 0 11 5 11 10 0 6 -2 10 -4 10 -3 0
-8 -4 -11 -10z"/>
<path d="M6230 5011 c0 -5 7 -11 14 -14 10 -4 13 -1 9 9 -6 15 -23 19 -23 5z"/>
<path d="M3316 4974 c-19 -19 -20 -36 -4 -52 32 -32 79 2 60 43 -13 29 -34 32
-56 9z"/>
<path d="M5760 4980 c0 -5 5 -10 10 -10 6 0 10 5 10 10 0 6 -4 10 -10 10 -5 0
-10 -4 -10 -10z"/>
<path d="M6308 4955 c13 -20 7 -41 -28 -90 -19 -27 -27 -44 -17 -36 9 7 26 29
38 48 18 28 27 34 48 31 24 -4 27 -1 23 24 -2 15 -7 28 -11 29 -40 5 -58 3
-53 -6z"/>
<path d="M2265 4928 c-56 -31 -74 -112 -35 -161 28 -36 83 -50 124 -33 43 18
58 39 63 91 5 41 3 47 -30 80 -37 37 -81 46 -122 23z m95 -77 c0 -38 -22 -63
-35 -41 -4 6 -1 10 4 10 6 0 11 7 11 15 0 17 -2 18 -24 9 -9 -3 -16 -17 -16
-29 0 -27 -14 -40 -31 -29 -8 5 -6 10 5 16 9 5 16 22 16 38 0 22 6 31 28 38
41 16 42 15 42 -27z"/>
<path d="M5431 4921 c-15 -10 -8 -41 9 -41 15 0 25 29 14 40 -5 5 -15 5 -23 1z"/>
<path d="M2762 4894 c-33 -23 -27 -74 11 -92 25 -12 31 -11 55 5 15 10 34 21
42 25 12 5 12 7 -2 7 -11 1 -18 9 -18 20 0 20 -34 51 -55 51 -6 0 -21 -7 -33
-16z"/>
<path d="M3511 4894 c-26 -18 -25 -51 2 -68 23 -15 51 3 55 37 4 35 -26 52
-57 31z"/>
<path d="M3112 4887 c-29 -38 -18 -57 34 -57 21 0 25 4 22 26 -3 30 -41 51
-56 31z"/>
<path d="M6390 4870 c6 -11 13 -20 16 -20 2 0 0 9 -6 20 -6 11 -13 20 -16 20
-2 0 0 -9 6 -20z"/>
<path d="M6185 4860 c-3 -6 1 -7 9 -4 18 7 21 14 7 14 -6 0 -13 -4 -16 -10z"/>
<path d="M2976 4844 c-32 -32 -13 -74 34 -74 30 0 50 16 50 41 0 23 -27 49
-50 49 -10 0 -26 -7 -34 -16z"/>
<path d="M6150 4840 c-9 -6 -10 -10 -3 -10 6 0 15 5 18 10 8 12 4 12 -15 0z"/>
<path d="M2632 4828 c-13 -13 -16 -57 -4 -74 26 -41 102 -15 102 34 0 36 -17
52 -55 52 -17 0 -36 -5 -43 -12z"/>
<path d="M5891 4814 c0 -11 3 -14 6 -6 3 7 2 16 -1 19 -3 4 -6 -2 -5 -13z"/>
<path d="M2010 4799 c0 -5 5 -7 10 -4 6 3 10 8 10 11 0 2 -4 4 -10 4 -5 0 -10
-5 -10 -11z"/>
<path d="M6235 4800 c-3 -5 1 -10 10 -10 9 0 13 5 10 10 -3 6 -8 10 -10 10 -2
0 -7 -4 -10 -10z"/>
<path d="M6434 4802 c3 -6 -1 -22 -9 -38 -13 -25 -12 -29 6 -42 12 -8 30 -11
45 -8 19 5 24 13 24 37 0 19 -6 31 -17 35 -10 3 -26 10 -37 15 -11 7 -16 7
-12 1z"/>
<path d="M6590 4800 c0 -5 5 -10 10 -10 6 0 10 5 10 10 0 6 -4 10 -10 10 -5 0
-10 -4 -10 -10z"/>
<path d="M5990 4789 c0 -5 5 -7 10 -4 6 3 10 8 10 11 0 2 -4 4 -10 4 -5 0 -10
-5 -10 -11z"/>
<path d="M6020 4770 c-9 -6 -10 -10 -3 -10 6 0 15 5 18 10 8 12 4 12 -15 0z"/>
<path d="M6200 4758 c-12 -22 -12 -22 6 -6 10 10 15 20 12 24 -4 3 -12 -5 -18
-18z"/>
<path d="M5974 4744 c-18 -14 -18 -15 4 -4 12 6 22 13 22 15 0 8 -5 6 -26 -11z"/>
<path d="M5886 4734 c-19 -18 -19 -20 -6 -45 12 -21 40 -25 58 -7 18 18 14 46
-7 58 -25 13 -27 13 -45 -6z"/>
<path d="M6630 4730 c0 -5 5 -10 10 -10 6 0 10 5 10 10 0 6 -4 10 -10 10 -5 0
-10 -4 -10 -10z"/>
<path d="M6169 4713 c-13 -16 -12 -17 4 -4 16 13 21 21 13 21 -2 0 -10 -8 -17
-17z"/>
<path d="M2553 4705 c-15 -11 -15 -17 -5 -39 12 -27 45 -35 58 -14 4 6 8 23 9
37 1 20 -3 26 -21 27 -13 1 -31 -4 -41 -11z"/>
<path d="M3280 4710 c0 -6 -5 -8 -10 -5 -6 4 -5 -8 3 -27 14 -36 47 -48 73
-28 15 13 19 46 7 53 -22 13 -73 18 -73 7z"/>
<path d="M6515 4710 c3 -5 1 -20 -5 -34 -8 -21 -6 -30 10 -46 24 -24 29 -24
58 -4 41 28 25 71 -31 84 -20 4 -35 4 -32 0z"/>
<path d="M7020 4710 c0 -5 5 -10 10 -10 6 0 10 5 10 10 0 6 -4 10 -10 10 -5 0
-10 -4 -10 -10z"/>
<path d="M6139 4673 c-13 -16 -12 -17 4 -4 16 13 21 21 13 21 -2 0 -10 -8 -17
-17z"/>
<path d="M1964 4659 c-10 -17 13 -36 27 -22 12 12 4 33 -11 33 -5 0 -12 -5
-16 -11z"/>
<path d="M6380 4660 c0 -5 5 -10 11 -10 5 0 7 5 4 10 -3 6 -8 10 -11 10 -2 0
-4 -4 -4 -10z"/>
<path d="M6865 4660 c-3 -5 -1 -10 4 -10 6 0 11 5 11 10 0 6 -2 10 -4 10 -3 0
-8 -4 -11 -10z"/>
<path d="M6109 4633 c-13 -16 -12 -17 4 -4 16 13 21 21 13 21 -2 0 -10 -8 -17
-17z"/>
<path d="M6165 4617 c-10 -8 -14 -17 -9 -20 6 -3 15 3 22 14 14 23 12 24 -13
6z"/>
<path d="M2630 4602 c-14 -2 -33 -11 -42 -19 -10 -9 -18 -12 -19 -7 -2 21 -17
-44 -18 -80 -1 -31 5 -45 29 -68 17 -16 35 -26 40 -23 16 10 11 22 -10 28 -19
5 -21 12 -18 69 l3 63 42 6 c25 3 55 0 73 -7 31 -13 43 -28 13 -17 -11 5 -10
0 6 -16 17 -17 21 -30 17 -49 -5 -22 -4 -24 4 -10 13 21 -3 89 -24 107 -20 16
-66 28 -96 23z"/>
<path d="M6055 4592 c-3 -3 -5 -11 -5 -19 0 -26 28 -24 56 3 23 22 25 25 7 15
-13 -6 -23 -8 -23 -3 0 9 -27 12 -35 4z"/>
<path d="M6570 4580 c0 -5 5 -10 11 -10 5 0 7 5 4 10 -3 6 -8 10 -11 10 -2 0
-4 -4 -4 -10z"/>
<path d="M6590 4550 c-6 -11 -8 -25 -5 -30 3 -6 2 -10 -4 -10 -5 0 -15 8 -20
18 -6 9 -11 12 -11 6 0 -6 -11 -16 -24 -22 -38 -17 -47 -42 -29 -80 13 -26 21
-32 48 -32 32 0 51 -19 46 -47 -1 -7 4 -13 11 -13 7 0 26 -20 41 -45 16 -25
31 -45 34 -45 3 0 -1 10 -9 23 -69 105 -87 137 -78 142 5 3 20 1 32 -5 22 -10
22 -10 4 4 -12 10 -17 23 -13 36 3 11 1 23 -4 26 -15 9 -10 27 5 21 23 -9 48
16 44 44 -4 33 -52 40 -68 9z"/>
<path d="M6915 4560 c-3 -5 1 -10 10 -10 9 0 13 5 10 10 -3 6 -8 10 -10 10 -2
0 -7 -4 -10 -10z"/>
<path d="M2722 4505 c0 -16 2 -22 5 -12 2 9 2 23 0 30 -3 6 -5 -1 -5 -18z"/>
<path d="M6747 4509 c-12 -17 -13 -25 -4 -40 29 -46 90 -29 85 24 -3 28 -7 32
-35 35 -23 2 -35 -3 -46 -19z"/>
<path d="M2637 4513 c-12 -12 -7 -41 7 -46 22 -9 41 19 26 38 -14 16 -23 19
-33 8z"/>
<path d="M7130 4511 c0 -5 5 -13 10 -16 6 -3 10 -2 10 4 0 5 -4 13 -10 16 -5
3 -10 2 -10 -4z"/>
<path d="M6250 4500 c0 -5 5 -10 11 -10 5 0 7 5 4 10 -3 6 -8 10 -11 10 -2 0
-4 -4 -4 -10z"/>
<path d="M1925 4490 c-3 -5 -1 -10 4 -10 6 0 11 5 11 10 0 6 -2 10 -4 10 -3 0
-8 -4 -11 -10z"/>
<path d="M6405 4480 c3 -5 10 -10 16 -10 5 0 9 5 9 10 0 6 -7 10 -16 10 -8 0
-12 -4 -9 -10z"/>
<path d="M2726 4433 c-6 -14 -5 -15 5 -6 7 7 10 15 7 18 -3 3 -9 -2 -12 -12z"/>
<path d="M2642 4418 c-19 -19 -14 -26 12 -21 16 3 23 10 19 19 -6 17 -15 18
-31 2z"/>
<path d="M2690 4409 c0 -5 5 -7 10 -4 6 3 10 8 10 11 0 2 -4 4 -10 4 -5 0 -10
-5 -10 -11z"/>
<path d="M6493 4383 c-7 -2 -13 -9 -13 -15 0 -5 -13 -28 -28 -51 -43 -64 -45
-68 -28 -61 9 3 16 11 16 18 0 6 16 35 35 64 20 28 34 52 33 51 -2 0 -9 -3
-15 -6z"/>
<path d="M7000 4360 c0 -5 5 -10 10 -10 6 0 10 5 10 10 0 6 -4 10 -10 10 -5 0
-10 -4 -10 -10z"/>
<path d="M6747 4349 c7 -7 15 -10 18 -7 3 3 -2 9 -12 12 -14 6 -15 5 -6 -5z"/>
<path d="M1780 4310 c0 -5 5 -10 10 -10 6 0 10 5 10 10 0 6 -4 10 -10 10 -5 0
-10 -4 -10 -10z"/>
<path d="M2500 4290 c-25 -25 -25 -33 -2 -52 38 -34 86 24 50 60 -17 17 -25
15 -48 -8z"/>
<path d="M1975 4290 c3 -5 8 -10 11 -10 2 0 4 5 4 10 0 6 -5 10 -11 10 -5 0
-7 -4 -4 -10z"/>
<path d="M7185 4291 c-3 -5 -1 -12 5 -16 5 -3 10 1 10 9 0 18 -6 21 -15 7z"/>
<path d="M6887 4279 c7 -7 15 -10 18 -7 3 3 -2 9 -12 12 -14 6 -15 5 -6 -5z"/>
<path d="M6770 4270 c0 -5 5 -10 10 -10 6 0 10 5 10 10 0 6 -4 10 -10 10 -5 0
-10 -4 -10 -10z"/>
<path d="M6927 4259 c7 -7 15 -10 18 -7 3 3 -2 9 -12 12 -14 6 -15 5 -6 -5z"/>
<path d="M2390 4245 c0 -9 -4 -13 -10 -10 -13 8 -13 -1 1 -26 11 -21 23 -18
39 11 8 15 6 21 -10 30 -16 9 -20 8 -20 -5z"/>
<path d="M6971 4251 c-15 -10 -6 -51 12 -51 22 0 39 17 35 36 -4 21 -26 28
-47 15z"/>
<path d="M6386 4223 c-6 -14 -5 -15 5 -6 7 7 10 15 7 18 -3 3 -9 -2 -12 -12z"/>
<path d="M6700 4210 c6 -11 13 -20 16 -20 2 0 0 9 -6 20 -6 11 -13 20 -16 20
-2 0 0 -9 6 -20z"/>
<path d="M6325 4190 c-12 -20 6 -50 30 -50 29 0 38 13 30 40 -7 21 -49 28 -60
10z"/>
<path d="M7010 4180 c0 -5 5 -10 10 -10 6 0 10 5 10 10 0 6 -4 10 -10 10 -5 0
-10 -4 -10 -10z"/>
<path d="M6420 4130 c0 -13 26 -30 34 -22 4 4 12 -1 17 -11 6 -9 14 -15 18
-12 12 7 31 -18 41 -52 8 -28 8 -28 9 -3 1 14 10 43 21 65 23 46 23 45 10 45
-5 0 -10 -7 -10 -16 0 -13 -3 -14 -14 -5 -16 14 -126 23 -126 11z"/>
<path d="M6390 4126 c0 -10 79 -90 80 -81 0 6 -16 27 -36 48 -33 35 -44 43
-44 33z"/>
<path d="M1870 4110 c0 -5 5 -10 10 -10 6 0 10 5 10 10 0 6 -4 10 -10 10 -5 0
-10 -4 -10 -10z"/>
<path d="M6770 4100 c6 -11 13 -20 16 -20 2 0 0 9 -6 20 -6 11 -13 20 -16 20
-2 0 0 -9 6 -20z"/>
<path d="M1690 4100 c0 -5 5 -10 10 -10 6 0 10 5 10 10 0 6 -4 10 -10 10 -5 0
-10 -4 -10 -10z"/>
<path d="M2441 4084 c0 -11 3 -14 6 -6 3 7 2 16 -1 19 -3 4 -6 -2 -5 -13z"/>
<path d="M6382 4090 c-1 -8 3 -24 7 -35 5 -11 2 -29 -5 -44 -15 -28 -3 -61 22
-61 8 0 19 -11 24 -25 11 -30 24 -34 15 -5 -12 39 6 43 41 9 19 -18 34 -29 34
-25 0 4 -17 23 -37 42 -28 25 -33 34 -20 34 9 0 17 4 17 10 0 5 -6 7 -14 4
-11 -4 -13 0 -9 15 4 16 -1 22 -21 27 -17 4 -32 18 -41 38 -7 17 -13 24 -13
16z"/>
<path d="M6750 4070 c0 -5 5 -10 10 -10 6 0 10 5 10 10 0 6 -4 10 -10 10 -5 0
-10 -4 -10 -10z"/>
<path d="M6870 4030 c-6 -11 -17 -20 -24 -20 -8 0 -19 -6 -25 -14 -15 -17 14
-50 36 -42 8 3 19 6 24 6 5 0 4 11 -2 24 -8 17 -8 29 0 45 7 11 9 21 7 21 -3
0 -10 -9 -16 -20z"/>
<path d="M2372 4028 c-13 -13 -16 -47 -4 -64 11 -17 45 -25 61 -14 10 6 25 2
45 -12 l31 -20 -30 28 c-19 17 -25 29 -17 32 9 3 6 12 -9 33 -21 30 -56 38
-77 17z"/>
<path d="M6490 4024 c0 -6 5 -15 12 -22 7 -7 8 -12 3 -12 -5 0 2 -11 15 -25
13 -14 28 -25 34 -25 5 0 21 -10 35 -22 l26 -23 -20 23 c-16 19 -17 27 -7 42
10 16 9 21 -9 30 -11 6 -25 9 -32 7 -7 -2 -22 5 -34 16 -13 11 -23 16 -23 11z"/>
<path d="M7380 4020 c0 -5 5 -10 10 -10 6 0 10 5 10 10 0 6 -4 10 -10 10 -5 0
-10 -4 -10 -10z"/>
<path d="M2040 4010 c0 -5 5 -10 10 -10 6 0 10 5 10 10 0 6 -4 10 -10 10 -5 0
-10 -4 -10 -10z"/>
<path d="M1830 4000 c0 -5 5 -10 10 -10 6 0 10 5 10 10 0 6 -4 10 -10 10 -5 0
-10 -4 -10 -10z"/>
<path d="M6970 4000 c0 -5 5 -10 10 -10 6 0 10 5 10 10 0 6 -4 10 -10 10 -5 0
-10 -4 -10 -10z"/>
<path d="M2547 3977 c-3 -8 -2 -20 3 -27 11 -18 42 -4 38 17 -4 22 -34 29 -41
10z"/>
<path d="M6987 3969 c-24 -14 -4 -51 26 -47 25 3 35 37 15 49 -16 11 -19 11
-41 -2z"/>
<path d="M7180 3970 c0 -5 5 -10 10 -10 6 0 10 5 10 10 0 6 -4 10 -10 10 -5 0
-10 -4 -10 -10z"/>
<path d="M2510 3916 c0 -2 8 -10 18 -17 15 -13 16 -12 3 4 -13 16 -21 21 -21
13z"/>
<path d="M5036 3892 c-11 -11 -6 -22 20 -38 30 -20 56 -6 35 19 -13 16 -47 28
-55 19z"/>
<path d="M7062 3888 c-15 -15 -16 -58 -2 -58 6 0 10 -10 11 -22 0 -16 2 -18 6
-8 4 8 14 21 25 28 24 17 23 49 -1 62 -24 13 -24 13 -39 -2z"/>
<path d="M2550 3886 c0 -2 8 -10 18 -17 15 -13 16 -12 3 4 -13 16 -21 21 -21
13z"/>
<path d="M6640 3855 c13 -14 26 -25 28 -25 3 0 -5 11 -18 25 -13 14 -26 25
-28 25 -3 0 5 -11 18 -25z"/>
<path d="M6858 3863 c7 -3 16 -2 19 1 4 3 -2 6 -13 5 -11 0 -14 -3 -6 -6z"/>
<path d="M2590 3856 c0 -2 8 -10 18 -17 15 -13 16 -12 3 4 -13 16 -21 21 -21
13z"/>
<path d="M2070 3820 c0 -5 5 -10 10 -10 6 0 10 5 10 10 0 6 -4 10 -10 10 -5 0
-10 -4 -10 -10z"/>
<path d="M2645 3810 c10 -11 20 -20 23 -20 3 0 -3 9 -13 20 -10 11 -20 20 -23
20 -3 0 3 -9 13 -20z"/>
<path d="M6690 3819 c0 -5 -6 -7 -12 -3 -7 4 -4 -2 6 -14 20 -23 36 -31 17 -9
-8 10 -7 17 1 25 9 9 9 12 0 12 -7 0 -12 -5 -12 -11z"/>
<path d="M7300 3810 c0 -5 5 -10 10 -10 6 0 10 5 10 10 0 6 -4 10 -10 10 -5 0
-10 -4 -10 -10z"/>
<path d="M1910 3780 c0 -5 5 -10 10 -10 6 0 10 5 10 10 0 6 -4 10 -10 10 -5 0
-10 -4 -10 -10z"/>
<path d="M2220 3771 c0 -24 25 -47 35 -31 4 6 13 9 21 6 11 -4 11 0 -2 19 -19
30 -54 34 -54 6z"/>
<path d="M2676 3773 c-8 -20 19 -44 40 -36 8 3 14 16 14 29 0 19 -5 24 -24 24
-13 0 -27 -8 -30 -17z"/>
<path d="M5220 3771 c0 -6 4 -13 10 -16 6 -3 7 1 4 9 -7 18 -14 21 -14 7z"/>
<path d="M5255 3751 c1 -11 25 -46 54 -78 29 -32 49 -51 45 -43 -9 19 -94 140
-98 140 -1 0 -2 -9 -1 -19z m30 -31 c10 -11 16 -20 13 -20 -3 0 -13 9 -23 20
-10 11 -16 20 -13 20 3 0 13 -9 23 -20z"/>
<path d="M7590 3753 c-8 -3 -27 -17 -42 -31 -21 -20 -28 -35 -28 -64 0 -82 53
-128 127 -112 21 4 42 6 48 5 6 -2 7 1 3 5 -4 3 2 18 12 32 24 30 26 89 4 120
-28 40 -83 60 -124 45z m90 -103 l0 -70 -55 0 -55 0 0 70 0 70 55 0 55 0 0
-70z"/>
<path d="M7600 3655 c-11 -13 -11 -19 3 -32 21 -21 49 -9 45 19 -4 28 -30 35
-48 13z"/>
<path d="M2450 3735 c0 -16 16 -20 24 -6 3 5 -1 11 -9 15 -9 3 -15 0 -15 -9z"/>
<path d="M5240 3708 c35 -39 33 -51 -4 -20 -21 17 -21 17 -3 -4 9 -11 15 -23
12 -26 -3 -3 6 -4 19 -3 14 2 31 -4 38 -13 11 -13 11 -14 -2 -7 -24 15 -37 14
-37 -2 0 -7 6 -12 13 -9 8 3 16 1 19 -5 4 -5 3 -9 -2 -8 -18 3 -36 -1 -30 -8
4 -3 2 -12 -4 -20 -9 -10 -4 -13 27 -13 22 0 46 6 55 13 15 11 8 21 -59 87
-42 41 -61 58 -42 38z"/>
<path d="M2605 3670 c-35 -36 -66 -59 -75 -57 -10 2 -21 -6 -28 -21 -6 -14 -9
-22 -5 -18 3 3 12 1 20 -5 15 -13 46 7 39 25 -2 6 24 39 57 74 34 34 59 62 56
62 -2 0 -31 -27 -64 -60z"/>
<path d="M1880 3700 c0 -5 5 -10 10 -10 6 0 10 5 10 10 0 6 -4 10 -10 10 -5 0
-10 -4 -10 -10z"/>
<path d="M6920 3679 c0 -5 5 -7 10 -4 6 3 10 8 10 11 0 2 -4 4 -10 4 -5 0 -10
-5 -10 -11z"/>
<path d="M7031 3664 c0 -11 3 -14 6 -6 3 7 2 16 -1 19 -3 4 -6 -2 -5 -13z"/>
<path d="M7021 3633 c-1 -6 -4 -20 -7 -30 -5 -17 -5 -17 6 0 6 10 9 23 6 30
-3 9 -5 9 -5 0z"/>
<path d="M2130 3619 c0 -5 5 -7 10 -4 6 3 10 8 10 11 0 2 -4 4 -10 4 -5 0 -10
-5 -10 -11z"/>
<path d="M2335 3620 c-3 -5 -1 -10 4 -10 6 0 11 5 11 10 0 6 -2 10 -4 10 -3 0
-8 -4 -11 -10z"/>
<path d="M7125 3620 c-3 -5 -1 -10 4 -10 6 0 11 5 11 10 0 6 -2 10 -4 10 -3 0
-8 -4 -11 -10z"/>
<path d="M7495 3610 c-3 -5 -1 -10 4 -10 6 0 11 5 11 10 0 6 -2 10 -4 10 -3 0
-8 -4 -11 -10z"/>
<path d="M6730 3590 c0 -5 5 -10 10 -10 6 0 10 5 10 10 0 6 -4 10 -10 10 -5 0
-10 -4 -10 -10z"/>
<path d="M7315 3590 c3 -5 8 -10 11 -10 2 0 4 5 4 10 0 6 -5 10 -11 10 -5 0
-7 -4 -4 -10z"/>
<path d="M5380 3565 c11 -13 7 -15 -28 -15 -39 0 -69 -19 -54 -35 4 -5 1 -5
-6 -1 -13 7 -72 -29 -72 -44 0 -13 30 -40 43 -40 8 0 9 3 1 8 -21 14 -23 40
-3 58 11 10 19 12 19 6 0 -7 -4 -12 -10 -12 -15 0 -12 -36 4 -49 11 -9 25 -9
56 -1 23 6 44 10 46 7 4 -4 -29 -21 -58 -31 -40 -12 -23 -23 131 -84 9 -3 12
1 8 14 -3 10 -11 38 -17 62 -7 29 -16 42 -28 42 -14 0 -14 2 -3 9 11 7 11 15
3 39 -7 22 -7 32 0 34 16 6 -9 48 -29 48 -13 0 -13 -3 -3 -15z"/>
<path d="M6520 3565 c-17 -21 -3 -55 24 -55 28 0 46 18 38 39 -11 32 -42 40
-62 16z"/>
<path d="M5170 3560 c0 -5 5 -10 11 -10 5 0 7 5 4 10 -3 6 -8 10 -11 10 -2 0
-4 -4 -4 -10z"/>
<path d="M5208 3563 c6 -2 18 -2 25 0 6 3 1 5 -13 5 -14 0 -19 -2 -12 -5z"/>
<path d="M1923 3545 c-36 -16 -73 -68 -73 -103 0 -38 30 -92 61 -107 89 -46
189 21 176 117 -6 46 -29 75 -74 94 -40 17 -49 17 -90 -1z m60 -63 c4 -17 16
-33 31 -40 35 -16 33 -26 -9 -52 -33 -21 -37 -21 -60 -6 -31 21 -35 66 -5 66
16 0 19 5 14 30 -5 23 -3 30 9 30 8 0 17 -12 20 -28z"/>
<path d="M1730 3540 c0 -5 4 -10 9 -10 6 0 13 5 16 10 3 6 -1 10 -9 10 -9 0
-16 -4 -16 -10z"/>
<path d="M5237 3541 c-21 -3 -38 -10 -39 -16 0 -5 -8 -15 -17 -22 -9 -6 -12
-15 -8 -19 4 -5 11 -4 15 2 4 6 16 14 27 18 17 5 79 48 65 44 -3 0 -22 -4 -43
-7z"/>
<path d="M6905 3540 c5 -8 17 -25 27 -36 11 -13 15 -24 10 -28 -14 -8 -3 -43
14 -50 19 -7 41 2 49 22 7 18 -30 56 -45 47 -5 -3 -20 9 -35 27 -15 18 -24 26
-20 18z"/>
<path d="M1520 3530 c0 -5 5 -10 10 -10 6 0 10 5 10 10 0 6 -4 10 -10 10 -5 0
-10 -4 -10 -10z"/>
<path d="M6990 3526 c0 -9 7 -16 16 -16 9 0 14 5 12 12 -6 18 -28 21 -28 4z"/>
<path d="M2207 3506 c-12 -13 -31 -25 -42 -27 -26 -5 -27 -42 -1 -47 10 -2 22
2 27 9 6 10 10 10 23 0 24 -20 66 -6 66 22 0 13 6 29 13 36 10 10 9 11 -4 6
-9 -3 -22 1 -29 10 -17 21 -27 19 -53 -9z"/>
<path d="M2540 3515 c0 -8 7 -15 15 -15 8 0 15 7 15 15 0 8 -7 15 -15 15 -8 0
-15 -7 -15 -15z"/>
<path d="M6668 3513 c6 -2 18 -2 25 0 6 3 1 5 -13 5 -14 0 -19 -2 -12 -5z"/>
<path d="M6723 3503 c9 -2 23 -2 30 0 6 3 -1 5 -18 5 -16 0 -22 -2 -12 -5z"/>
<path d="M2300 3480 c0 -5 5 -10 10 -10 6 0 10 5 10 10 0 6 -4 10 -10 10 -5 0
-10 -4 -10 -10z"/>
<path d="M7600 3439 c0 -5 5 -7 10 -4 6 3 10 8 10 11 0 2 -4 4 -10 4 -5 0 -10
-5 -10 -11z"/>
<path d="M2105 3420 c3 -5 8 -10 11 -10 2 0 4 5 4 10 0 6 -5 10 -11 10 -5 0
-7 -4 -4 -10z"/>
<path d="M2340 3387 c24 -26 46 -47 48 -47 8 0 -34 47 -62 69 -21 16 -16 9 14
-22z"/>
<path d="M6830 3420 c0 -5 10 -10 23 -10 18 0 19 2 7 10 -19 13 -30 13 -30 0z"/>
<path d="M7210 3410 c0 -5 5 -10 10 -10 6 0 10 5 10 10 0 6 -4 10 -10 10 -5 0
-10 -4 -10 -10z"/>
<path d="M7410 3394 c0 -8 5 -12 10 -9 6 4 8 11 5 16 -9 14 -15 11 -15 -7z"/>
<path d="M5241 3377 c-18 -18 -13 -26 29 -47 31 -16 38 -17 34 -5 -4 8 -1 15
5 15 10 0 15 -13 12 -32 -1 -9 122 -68 128 -62 8 8 -126 124 -143 124 -4 0 -4
-4 -1 -10 3 -5 3 -10 -2 -11 -4 0 -16 -2 -26 -4 -9 -2 -15 1 -12 6 4 5 -2 6
-11 2 -12 -4 -15 -3 -10 5 9 16 33 15 39 0 4 -8 6 -7 6 3 1 20 -33 31 -48 16z"/>
<path d="M1770 3350 c0 -5 5 -10 10 -10 6 0 10 5 10 10 0 6 -4 10 -10 10 -5 0
-10 -4 -10 -10z"/>
<path d="M2244 3345 c-8 -20 2 -30 31 -30 19 -1 22 3 15 20 -9 25 -38 32 -46
10z"/>
<path d="M7062 3336 c1 -10 8 -17 13 -17 15 1 12 24 -3 29 -9 3 -13 -2 -10
-12z"/>
<path d="M5405 3307 c34 -29 41 -32 46 -18 7 17 -13 32 -61 46 -21 6 -19 2 15
-28z"/>
<path d="M2440 3295 c19 -19 36 -35 39 -35 3 0 -10 16 -29 35 -19 19 -36 35
-39 35 -3 0 10 -16 29 -35z"/>
<path d="M5226 3308 c21 -69 33 -86 66 -93 18 -4 38 -11 44 -17 7 -5 16 -8 20
-7 25 4 32 -7 44 -71 19 -101 32 -93 45 26 5 46 3 65 -7 73 -12 11 -207 111
-215 111 -3 0 -1 -10 3 -22z m64 -38 c-8 -5 -19 -10 -25 -10 -5 0 -3 5 5 10 8
5 20 10 25 10 6 0 3 -5 -5 -10z m64 -26 c9 -23 7 -46 -3 -40 -11 7 -21 56 -11
56 4 0 11 -7 14 -16z"/>
<path d="M6671 3311 c-23 -42 -10 -72 36 -83 29 -8 55 21 57 64 1 32 0 33 -41
36 -33 2 -44 -1 -52 -17z"/>
<path d="M1606 3311 c-4 -5 -2 -12 3 -15 5 -4 12 -2 15 3 4 5 2 12 -3 15 -5 4
-12 2 -15 -3z"/>
<path d="M1940 3290 c0 -5 5 -10 10 -10 6 0 10 5 10 10 0 6 -4 10 -10 10 -5 0
-10 -4 -10 -10z"/>
<path d="M5200 3285 c0 -5 5 -17 10 -25 5 -8 10 -10 10 -5 0 6 -5 17 -10 25
-5 8 -10 11 -10 5z"/>
<path d="M2383 3255 c-7 -20 2 -29 21 -22 9 4 13 13 10 22 -8 19 -23 19 -31 0z"/>
<path d="M2505 3223 c0 -33 31 -50 44 -24 11 20 3 32 -29 43 -12 4 -16 -1 -15
-19z"/>
<path d="M7530 3240 c0 -5 5 -10 11 -10 5 0 7 5 4 10 -3 6 -8 10 -11 10 -2 0
-4 -4 -4 -10z"/>
<path d="M2260 3229 c0 -5 5 -7 10 -4 6 3 10 8 10 11 0 2 -4 4 -10 4 -5 0 -10
-5 -10 -11z"/>
<path d="M5214 3228 c-14 -22 -13 -40 2 -34 18 7 18 2 -2 -39 -12 -26 -13 -38
-4 -52 9 -15 10 -15 4 7 -5 21 -4 23 7 12 8 -7 15 -23 15 -35 4 -60 4 -63 13
-47 5 8 12 34 16 56 6 37 3 44 -17 59 -14 11 -19 19 -11 22 17 6 4 33 -16 33
-14 0 -14 2 -1 10 8 5 12 12 8 15 -3 4 -10 0 -14 -7z"/>
<path d="M5497 3234 c-4 -4 -7 -17 -7 -28 1 -19 1 -20 11 -3 11 19 8 43 -4 31z"/>
<path d="M7270 3214 c0 -8 5 -12 10 -9 6 3 10 10 10 16 0 5 -4 9 -10 9 -5 0
-10 -7 -10 -16z"/>
<path d="M7046 3205 c-3 -9 0 -15 9 -15 8 0 15 7 15 15 0 8 -4 15 -9 15 -5 0
-11 -7 -15 -15z"/>
<path d="M5260 3200 c0 -13 18 -22 24 -11 3 5 -1 11 -9 15 -8 3 -15 1 -15 -4z"/>
<path d="M6731 3200 c0 -8 4 -22 9 -30 12 -18 12 -2 0 25 -6 13 -9 15 -9 5z"/>
<path d="M7120 3195 c-18 -22 -3 -57 23 -53 29 4 35 43 9 57 -15 8 -23 7 -32
-4z"/>
<path d="M1820 3150 c0 -5 5 -10 10 -10 6 0 10 5 10 10 0 6 -4 10 -10 10 -5 0
-10 -4 -10 -10z"/>
<path d="M2040 3150 c0 -5 -7 -7 -15 -4 -8 4 -15 1 -15 -4 0 -21 18 -21 35 -2
10 12 13 20 7 20 -7 0 -12 -4 -12 -10z"/>
<path d="M5313 3140 c1 -14 7 -25 12 -25 6 0 11 11 12 25 2 22 2 23 -6 5 l-8
-20 -6 20 c-4 15 -5 14 -4 -5z"/>
<path d="M7007 3027 c-47 -50 -95 -106 -108 -122 l-22 -30 25 25 c48 49 200
220 195 220 -2 0 -43 -42 -90 -93z"/>
<path d="M7357 3095 c-45 -15 -83 -48 -103 -88 -8 -15 -19 -25 -24 -22 -6 4
-10 1 -10 -4 0 -6 3 -11 8 -11 4 0 5 -22 4 -49 -8 -116 98 -213 216 -197 186
25 228 283 59 362 -59 27 -95 29 -150 9z m67 -88 c16 -12 16 -14 -8 -26 -14
-8 -27 -20 -31 -28 -3 -8 9 -3 26 11 39 33 71 33 108 -1 33 -31 37 -48 26
-110 l-8 -43 -49 0 c-58 0 -82 11 -103 48 -14 25 -15 25 -9 3 6 -21 4 -23 -17
-18 -13 4 -31 7 -41 7 -22 0 -36 92 -18 125 22 41 88 58 124 32z"/>
<path d="M5195 3053 c0 -20 5 -28 20 -30 11 -2 14 0 7 3 -6 3 -10 9 -7 13 2 5
-1 16 -8 25 -12 16 -13 15 -12 -11z"/>
<path d="M7150 3070 c0 -5 5 -10 10 -10 6 0 10 5 10 10 0 6 -4 10 -10 10 -5 0
-10 -4 -10 -10z"/>
<path d="M5185 3000 c-4 -6 -11 -7 -17 -4 -7 4 -8 2 -4 -5 6 -9 11 -9 22 0 14
11 18 19 10 19 -3 0 -8 -5 -11 -10z"/>
<path d="M2075 2990 c-9 -15 4 -30 26 -30 17 0 18 3 9 20 -12 22 -25 26 -35
10z"/>
<path d="M6710 2992 c0 -4 9 -13 20 -20 19 -12 20 -11 8 8 -13 20 -28 27 -28
12z"/>
<path d="M1680 2970 c0 -5 5 -10 10 -10 6 0 10 5 10 10 0 6 -4 10 -10 10 -5 0
-10 -4 -10 -10z"/>
<path d="M1870 2960 c0 -5 5 -10 10 -10 6 0 10 5 10 10 0 6 -4 10 -10 10 -5 0
-10 -4 -10 -10z"/>
<path d="M2560 2955 c-8 -9 -10 -29 -7 -49 3 -19 0 -39 -6 -47 -8 -8 -5 -8 7
1 10 8 29 13 42 12 15 -2 28 5 40 22 15 24 15 28 0 51 -19 28 -57 33 -76 10z"/>
<path d="M5133 2947 c-4 -8 -15 -17 -23 -20 -13 -5 -12 -6 1 -6 18 -1 45 26
36 35 -3 3 -9 -1 -14 -9z"/>
<path d="M4990 2947 c0 -3 26 -24 58 -48 39 -30 68 -44 93 -46 34 -2 36 0 31
25 -5 25 -5 25 -13 4 -11 -29 -18 -28 -80 14 -60 40 -89 57 -89 51z"/>
<path d="M6990 2940 c0 -5 5 -10 10 -10 6 0 10 5 10 10 0 6 -4 10 -10 10 -5 0
-10 -4 -10 -10z"/>
<path d="M1485 2930 c-3 -5 -1 -10 4 -10 6 0 11 5 11 10 0 6 -2 10 -4 10 -3 0
-8 -4 -11 -10z"/>
<path d="M4300 2936 c0 -2 7 -7 16 -10 8 -3 12 -2 9 4 -6 10 -25 14 -25 6z"/>
<path d="M6816 2927 c3 -10 9 -15 12 -12 3 3 0 11 -7 18 -10 9 -11 8 -5 -6z"/>
<path d="M4266 2922 c-2 -4 -1 -14 4 -22 7 -11 9 -9 7 8 -1 24 -3 26 -11 14z"/>
<path d="M4315 2900 c-3 -5 -1 -10 4 -10 6 0 11 5 11 10 0 6 -2 10 -4 10 -3 0
-8 -4 -11 -10z"/>
<path d="M5346 2879 c-18 -31 -17 -47 3 -34 18 10 30 40 22 53 -4 8 -13 1 -25
-19z"/>
<path d="M6795 2889 c-10 -15 3 -25 16 -12 7 7 7 13 1 17 -6 3 -14 1 -17 -5z"/>
<path d="M6825 2859 c-4 -11 -4 -23 -1 -26 3 -3 -4 -22 -15 -42 l-21 -36 21
25 c11 14 21 28 21 33 0 15 28 6 44 -15 16 -22 16 -22 6 -1 -5 12 -7 28 -4 36
5 14 -20 47 -36 47 -5 0 -12 -9 -15 -21z"/>
<path d="M5048 2863 c7 -3 16 -2 19 1 4 3 -2 6 -13 5 -11 0 -14 -3 -6 -6z"/>
<path d="M2301 2857 c2 -1 13 -9 24 -17 19 -14 19 -14 6 3 -7 9 -18 17 -24 17
-6 0 -8 -1 -6 -3z"/>
<path d="M7170 2849 c0 -5 5 -7 10 -4 6 3 10 8 10 11 0 2 -4 4 -10 4 -5 0 -10
-5 -10 -11z"/>
<path d="M2085 2840 c-3 -5 -1 -10 4 -10 6 0 11 5 11 10 0 6 -2 10 -4 10 -3 0
-8 -4 -11 -10z"/>
<path d="M2525 2830 c-3 -5 -19 -10 -34 -10 -45 0 -69 -28 -60 -70 6 -28 3
-40 -14 -60 l-22 -25 24 20 c13 12 38 20 58 20 27 0 41 7 57 28 20 27 20 30 4
57 -11 20 -13 31 -5 39 6 6 8 11 5 11 -4 0 -10 -4 -13 -10z"/>
<path d="M5070 2823 c19 -3 40 -9 46 -14 7 -6 14 -6 16 -2 3 4 3 3 2 -4 -2 -6
4 -14 12 -17 9 -3 12 -2 9 5 -4 5 -1 16 5 24 11 13 3 15 -56 13 -39 -1 -54 -3
-34 -5z"/>
<path d="M5091 2790 l24 -20 -30 6 c-20 4 -26 3 -17 -4 11 -7 9 -10 -7 -15
-13 -3 -19 -1 -14 5 3 7 1 8 -5 4 -18 -11 -14 -26 6 -26 24 0 82 29 82 40 0
11 -33 30 -50 30 -7 0 -2 -9 11 -20z"/>
<path d="M1770 2770 c0 -5 5 -10 10 -10 6 0 10 5 10 10 0 6 -4 10 -10 10 -5 0
-10 -4 -10 -10z"/>
<path d="M2350 2770 c0 -5 5 -10 10 -10 6 0 10 5 10 10 0 6 -4 10 -10 10 -5 0
-10 -4 -10 -10z"/>
<path d="M1590 2759 c0 -5 5 -7 10 -4 6 3 10 8 10 11 0 2 -4 4 -10 4 -5 0 -10
-5 -10 -11z"/>
<path d="M5212 2749 c-38 -35 -24 -71 16 -43 22 15 29 48 14 58 -5 3 -19 -4
-30 -15z"/>
<path d="M1956 2751 c-4 -5 -2 -12 3 -15 5 -4 12 -2 15 3 4 5 2 12 -3 15 -5 4
-12 2 -15 -3z"/>
<path d="M4983 2753 c9 -2 23 -2 30 0 6 3 -1 5 -18 5 -16 0 -22 -2 -12 -5z"/>
<path d="M6765 2740 c-3 -5 -2 -10 4 -10 5 0 13 5 16 10 3 6 2 10 -4 10 -5 0
-13 -4 -16 -10z"/>
<path d="M6970 2740 c0 -5 5 -10 10 -10 6 0 10 5 10 10 0 6 -4 10 -10 10 -5 0
-10 -4 -10 -10z"/>
<path d="M7040 2746 c0 -2 7 -7 16 -10 8 -3 12 -2 9 4 -6 10 -25 14 -25 6z"/>
<path d="M4999 2711 c10 -6 3 -12 -24 -21 l-37 -12 25 -25 c21 -21 28 -23 46
-14 11 7 21 16 21 21 0 5 12 21 27 35 l28 25 -50 0 c-32 0 -45 -3 -36 -9z m31
-35 c0 -2 -11 -11 -24 -19 -20 -14 -25 -14 -30 -2 -3 9 0 12 10 8 7 -3 14 0
14 6 0 6 7 11 15 11 8 0 15 -2 15 -4z"/>
<path d="M1552 2694 c-73 -37 -121 -128 -107 -203 33 -173 256 -224 352 -80
58 88 35 211 -49 267 -51 33 -146 41 -196 16z m72 -74 c30 -11 34 -26 7 -35
-10 -3 -26 -21 -37 -40 -15 -29 -17 -40 -7 -65 11 -30 11 -30 -26 -30 -35 0
-37 2 -49 45 -16 61 5 109 58 128 22 8 26 8 54 -3z m120 -59 c26 -28 28 -34
22 -84 l-7 -54 -44 -7 c-57 -7 -90 6 -110 43 -22 44 -19 69 14 102 40 40 87
40 125 0z"/>
<path d="M4925 2700 c3 -5 8 -10 11 -10 2 0 4 5 4 10 0 6 -5 10 -11 10 -5 0
-7 -4 -4 -10z"/>
<path d="M4950 2700 c0 -5 7 -7 15 -4 8 4 15 8 15 10 0 2 -7 4 -15 4 -8 0 -15
-4 -15 -10z"/>
<path d="M7123 2703 c4 -4 -5 -20 -20 -37 -26 -29 -26 -29 -2 -8 14 12 33 22
42 22 9 0 17 7 17 15 0 9 -9 15 -22 15 -12 0 -18 -3 -15 -7z"/>
<path d="M2165 2680 c-3 -5 -1 -10 4 -10 6 0 11 5 11 10 0 6 -2 10 -4 10 -3 0
-8 -4 -11 -10z"/>
<path d="M3848 2660 c18 -17 38 -30 45 -30 6 0 -3 14 -21 30 -18 17 -38 30
-45 30 -6 0 3 -14 21 -30z"/>
<path d="M4895 2672 c-13 -12 -104 -34 -115 -27 -4 3 -10 1 -12 -4 -1 -6 -15
-11 -30 -13 -15 -2 -31 -8 -35 -12 -7 -8 39 -2 96 11 20 5 22 3 17 -14 -5 -17
-1 -22 24 -27 34 -6 32 -26 -3 -26 -18 0 -19 2 -7 10 13 9 13 10 0 10 -9 0
-21 -5 -28 -12 -9 -9 -12 -6 -12 15 0 15 -5 27 -11 27 -5 0 -8 -4 -5 -8 2 -4
1 -14 -4 -22 -5 -9 -5 -19 2 -27 14 -17 -55 -47 -89 -39 -13 4 -36 0 -53 -9
-16 -8 -39 -15 -51 -15 -12 0 -20 -3 -17 -6 11 -10 98 8 91 19 -4 6 4 8 21 3
44 -11 278 60 289 88 7 18 -55 90 -68 78z m36 -30 c0 -4 2 -15 4 -24 3 -14 0
-16 -15 -8 -9 5 -20 6 -24 3 -3 -3 -6 -1 -6 5 0 6 -7 9 -15 6 -8 -4 -15 -1
-15 4 0 15 69 28 71 14z m-31 -42 c12 -8 9 -10 -13 -10 -16 0 -26 4 -22 10 8
12 16 12 35 0z m30 -20 c-8 -5 -24 -9 -35 -9 -16 1 -16 2 5 9 35 11 48 11 30
0z"/>
<path d="M4910 2630 c0 -5 5 -10 11 -10 5 0 7 5 4 10 -3 6 -8 10 -11 10 -2 0
-4 -4 -4 -10z"/>
<path d="M1450 2660 c0 -5 5 -10 10 -10 6 0 10 5 10 10 0 6 -4 10 -10 10 -5 0
-10 -4 -10 -10z"/>
<path d="M3795 2660 c-3 -5 4 -19 15 -30 24 -24 45 -18 30 9 -11 22 -37 34
-45 21z"/>
<path d="M7220 2659 c0 -5 5 -7 10 -4 6 3 10 8 10 11 0 2 -4 4 -10 4 -5 0 -10
-5 -10 -11z"/>
<path d="M2337 2653 c-14 -13 -6 -49 13 -66 11 -9 20 -12 20 -6 0 6 6 9 13 6
15 -6 17 39 3 61 -8 13 -39 16 -49 5z"/>
<path d="M4335 2651 c-7 -12 25 -30 43 -24 6 3 12 11 12 19 0 16 -45 20 -55 5z
m45 -5 c0 -11 -19 -15 -25 -6 -3 5 1 10 9 10 9 0 16 -2 16 -4z"/>
<path d="M6651 2623 c-30 -21 -28 -68 4 -89 23 -15 27 -15 49 -1 18 12 26 13
37 4 10 -10 11 -9 3 3 -6 8 -11 25 -12 38 -2 47 -45 71 -81 45z"/>
<path d="M7049 2623 c-13 -16 -12 -17 4 -4 16 13 21 21 13 21 -2 0 -10 -8 -17
-17z"/>
<path d="M4645 2610 c-3 -5 1 -10 10 -10 9 0 13 5 10 10 -3 6 -8 10 -10 10 -2
0 -7 -4 -10 -10z"/>
<path d="M5167 2602 c-24 -26 -22 -45 3 -37 14 5 27 -1 41 -17 l20 -23 -16 27
c-10 16 -14 36 -10 48 8 26 -15 27 -38 2z"/>
<path d="M6956 2604 c-9 -8 -16 -23 -16 -33 0 -35 59 -67 75 -41 3 5 12 7 21
3 12 -4 14 0 8 23 -11 48 -24 64 -49 64 -13 0 -31 -7 -39 -16z"/>
<path d="M4588 2603 c6 -2 18 -2 25 0 6 3 1 5 -13 5 -14 0 -19 -2 -12 -5z"/>
<path d="M7190 2590 c0 -5 5 -10 10 -10 6 0 10 5 10 10 0 6 -4 10 -10 10 -5 0
-10 -4 -10 -10z"/>
<path d="M2426 2560 c17 -19 20 -34 16 -65 -2 -22 -9 -47 -16 -55 -10 -13 -9
-13 7 -1 13 11 20 11 32 1 8 -6 23 -9 35 -5 12 4 28 1 38 -7 15 -12 16 -11 3
5 -11 13 -11 20 -1 32 29 35 -22 95 -65 78 -9 -3 -27 5 -43 18 l-27 24 21 -25z"/>
<path d="M4840 2517 c-65 -22 -155 -44 -207 -50 -50 -7 -94 -15 -97 -18 -7 -7
78 -66 143 -98 37 -19 45 -20 59 -9 10 8 30 20 45 26 16 7 31 20 34 30 2 9 23
26 45 37 62 30 86 52 93 86 4 17 5 31 3 33 -1 1 -55 -16 -118 -37z"/>
<path d="M2390 2530 c0 -5 5 -10 10 -10 6 0 10 5 10 10 0 6 -4 10 -10 10 -5 0
-10 -4 -10 -10z"/>
<path d="M3865 2500 c10 -11 20 -20 23 -20 3 0 -3 9 -13 20 -10 11 -20 20 -23
20 -3 0 3 -9 13 -20z"/>
<path d="M5024 2500 c-30 -32 -95 -80 -109 -80 -7 0 -19 -8 -26 -17 -12 -15
-12 -16 6 -9 24 8 111 60 145 86 18 13 22 22 14 30 -7 7 -16 4 -30 -10z"/>
<path d="M6784 2511 c4 -6 22 -18 39 -27 30 -14 31 -14 12 1 -30 25 -59 39
-51 26z"/>
<path d="M4458 2479 c-25 -14 -22 -26 8 -45 22 -15 27 -15 39 -3 7 8 16 23 19
34 5 17 1 21 -22 23 -15 1 -35 -3 -44 -9z"/>
<path d="M2352 2460 c0 -14 2 -19 5 -12 2 6 2 18 0 25 -3 6 -5 1 -5 -13z"/>
<path d="M6736 2467 c3 -10 9 -15 12 -12 3 3 0 11 -7 18 -10 9 -11 8 -5 -6z"/>
<path d="M6695 2460 c3 -5 8 -10 11 -10 2 0 4 5 4 10 0 6 -5 10 -11 10 -5 0
-7 -4 -4 -10z"/>
<path d="M5151 2430 c-13 -11 -19 -20 -13 -20 5 0 20 9 33 20 13 10 20 19 14
19 -5 0 -21 -9 -34 -19z"/>
<path d="M2337 2416 c-25 -19 -22 -55 6 -65 27 -11 47 3 47 33 0 12 6 28 13
36 10 12 9 12 -5 1 -13 -10 -22 -10 -31 -3 -8 7 -17 7 -30 -2z"/>
<path d="M3950 2405 c7 -8 20 -15 28 -15 13 0 12 3 -4 15 -25 19 -40 19 -24 0z"/>
<path d="M4491 2386 c-15 -59 21 -108 73 -100 68 12 126 26 126 32 0 10 -123
77 -137 76 -7 -1 -11 3 -10 8 1 6 -8 12 -21 13 -17 1 -24 -5 -31 -29z"/>
<path d="M4948 2402 c-22 -15 -25 -21 -16 -37 16 -28 68 -88 68 -77 0 5 -9 17
-21 28 -11 10 -18 26 -16 36 3 9 0 16 -5 15 -20 -4 -19 21 1 28 12 3 21 11 21
16 0 12 -1 12 -32 -9z"/>
<path d="M6987 2409 c-24 -14 -22 -56 4 -70 18 -9 25 -7 42 9 11 11 17 27 14
36 -9 23 -40 36 -60 25z"/>
<path d="M1896 2401 c-4 -5 -2 -12 3 -15 5 -4 12 -2 15 3 4 5 2 12 -3 15 -5 4
-12 2 -15 -3z"/>
<path d="M2550 2406 c0 -2 8 -10 18 -17 15 -13 16 -12 3 4 -13 16 -21 21 -21
13z"/>
<path d="M6870 2380 c0 -5 5 -10 10 -10 6 0 10 5 10 10 0 6 -4 10 -10 10 -5 0
-10 -4 -10 -10z"/>
<path d="M4361 2364 c0 -11 3 -14 6 -6 3 7 2 16 -1 19 -3 4 -6 -2 -5 -13z"/>
<path d="M2100 2360 c0 -5 5 -10 10 -10 6 0 10 5 10 10 0 6 -4 10 -10 10 -5 0
-10 -4 -10 -10z"/>
<path d="M7280 2359 c0 -5 5 -7 10 -4 6 3 10 8 10 11 0 2 -4 4 -10 4 -5 0 -10
-5 -10 -11z"/>
<path d="M7070 2350 c0 -5 5 -10 10 -10 6 0 10 5 10 10 0 6 -4 10 -10 10 -5 0
-10 -4 -10 -10z"/>
<path d="M6800 2341 c0 -5 5 -13 10 -16 6 -3 10 -2 10 4 0 5 -4 13 -10 16 -5
3 -10 2 -10 -4z"/>
<path d="M4320 2320 c-9 -6 -10 -10 -3 -10 6 0 15 5 18 10 8 12 4 12 -15 0z"/>
<path d="M6540 2314 c-10 -11 -11 -23 -4 -42 7 -21 17 -28 44 -30 19 -2 46
-13 60 -25 l25 -22 -23 26 c-17 20 -21 33 -16 53 4 16 1 32 -6 41 -16 20 -64
19 -80 -1z"/>
<path d="M4350 2310 c-12 -8 -12 -10 2 -15 20 -8 41 2 33 16 -8 11 -16 11 -35
-1z"/>
<path d="M2633 2293 c14 -15 16 -26 9 -40 -5 -10 -7 -24 -5 -31 6 -15 -31 -57
-87 -102 -33 -26 -36 -27 -37 -9 -1 11 2 17 8 14 5 -4 9 -4 9 -1 0 9 -61 38
-68 32 -3 -3 -10 -2 -16 3 -17 14 -91 -3 -131 -30 -35 -24 -75 -89 -75 -122 0
-9 -6 -17 -12 -17 -9 0 -9 -3 -3 -8 6 -4 16 -25 23 -47 13 -44 63 -102 100
-116 48 -18 127 -11 166 16 21 14 42 22 48 19 6 -4 8 -2 4 4 -6 9 9 52 35 104
9 18 -6 39 -47 65 -16 10 -17 13 -4 22 18 12 33 4 26 -15 -3 -8 -1 -14 4 -14
14 0 8 49 -7 62 -9 7 -13 7 -13 -1 0 -6 -4 -11 -10 -11 -20 0 -9 19 41 75 29
31 59 55 68 54 31 -3 40 1 51 22 9 16 8 25 -6 40 -9 10 -24 19 -32 19 -9 0
-25 8 -36 18 -21 17 -21 17 -3 -5z m-128 -299 c5 -65 4 -109 -2 -115 -6 -6
-45 -9 -89 -7 l-79 3 0 110 0 110 70 5 c39 3 75 4 82 2 7 -2 14 -43 18 -108z
m78 -31 c-3 -7 -6 -13 -8 -13 -2 0 -5 6 -8 13 -3 8 1 14 8 14 7 0 11 -6 8 -14z
m-10 -44 c-8 -8 -13 -7 -18 2 -5 8 -4 10 3 5 7 -4 12 -2 12 5 0 7 3 9 7 6 4
-4 2 -12 -4 -18z"/>
<path d="M2360 1995 l0 -85 59 0 59 0 4 46 c2 25 2 64 0 85 l-4 39 -59 0 -59
0 0 -85z"/>
<path d="M6813 2292 c-7 -12 -8 -24 -1 -36 5 -9 7 -25 4 -34 -5 -15 -5 -15 6
-1 7 8 20 18 29 21 9 4 24 21 33 38 10 20 11 28 3 22 -8 -7 -18 -7 -27 -2 -22
14 -34 12 -47 -8z"/>
<path d="M2320 2280 c0 -5 5 -10 10 -10 6 0 10 5 10 10 0 6 -4 10 -10 10 -5 0
-10 -4 -10 -10z"/>
<path d="M4140 2270 c20 -13 33 -13 25 0 -3 6 -14 10 -23 10 -15 0 -15 -2 -2
-10z"/>
<path d="M6676 2265 c4 -8 8 -15 10 -15 2 0 4 7 4 15 0 8 -4 15 -10 15 -5 0
-7 -7 -4 -15z"/>
<path d="M6728 2273 c6 -2 18 -2 25 0 6 3 1 5 -13 5 -14 0 -19 -2 -12 -5z"/>
<path d="M7420 2269 c0 -5 5 -7 10 -4 6 3 10 8 10 11 0 2 -4 4 -10 4 -5 0 -10
-5 -10 -11z"/>
<path d="M2385 2240 c-8 -36 4 -54 31 -48 26 4 31 46 7 55 -10 4 -21 11 -24
16 -4 5 -10 -5 -14 -23z"/>
<path d="M4404 2255 c24 -19 90 -21 84 -2 -3 7 -25 13 -54 15 -45 2 -48 1 -30
-13z"/>
<path d="M7235 2260 c-3 -5 -1 -10 4 -10 6 0 11 5 11 10 0 6 -2 10 -4 10 -3 0
-8 -4 -11 -10z"/>
<path d="M4537 2253 c-4 -3 -4 -10 -1 -14 7 -12 64 -11 64 1 0 6 -3 10 -7 11
-5 0 -17 2 -29 4 -12 3 -24 2 -27 -2z"/>
<path d="M2505 2230 c-18 -8 -17 -9 8 -9 16 -1 26 3 22 9 -3 6 -7 10 -8 9 -1
0 -11 -4 -22 -9z"/>
<path d="M6790 2180 c-6 -11 -8 -20 -6 -20 3 0 10 9 16 20 6 11 8 20 6 20 -3
0 -10 -9 -16 -20z"/>
<path d="M6920 2190 c0 -5 5 -10 10 -10 6 0 10 5 10 10 0 6 -4 10 -10 10 -5 0
-10 -4 -10 -10z"/>
<path d="M2060 2180 c0 -5 5 -10 10 -10 6 0 10 5 10 10 0 6 -4 10 -10 10 -5 0
-10 -4 -10 -10z"/>
<path d="M6680 2165 c13 -14 26 -25 28 -25 3 0 -5 11 -18 25 -13 14 -26 25
-28 25 -3 0 5 -11 18 -25z"/>
<path d="M6723 2100 c-3 -34 -22 -51 -43 -40 -28 15 -48 12 -71 -11 -16 -16
-20 -29 -16 -54 6 -37 -21 -73 -44 -59 -7 4 -10 3 -6 -3 4 -6 -2 -18 -13 -28
-18 -16 -19 -16 -18 14 1 17 -3 35 -7 39 -4 4 -6 -2 -3 -14 7 -26 -8 -54 -28
-54 -11 0 -12 4 -4 19 8 16 7 19 -8 16 -9 -1 -16 -9 -14 -17 1 -9 -5 -21 -13
-28 -8 -7 -15 -22 -15 -34 0 -18 -3 -16 -20 12 -25 41 -25 45 0 37 11 -4 20
-2 20 4 0 6 -5 11 -11 11 -6 0 -9 10 -7 23 2 16 9 21 25 19 12 -2 24 2 28 8
10 17 63 12 67 -7 3 -14 4 -15 16 -1 19 23 -11 52 -38 38 -30 -16 -42 -12 -36
13 6 22 6 22 -5 1 -16 -31 -54 -47 -69 -28 -7 8 -21 14 -31 14 -20 0 -59 -33
-59 -50 0 -16 51 -61 61 -54 5 3 16 -10 24 -28 7 -19 26 -40 41 -47 20 -9 24
-15 16 -23 -7 -7 -12 -17 -12 -22 0 -6 5 -3 11 7 6 10 22 17 38 17 35 0 52 19
53 59 1 17 5 28 10 25 4 -3 8 2 8 10 0 9 13 30 28 47 26 29 30 30 50 18 19
-12 26 -12 50 1 22 13 27 23 28 56 1 51 9 64 40 64 21 0 25 4 22 23 -4 30 -43
36 -45 7z"/>
<path d="M2656 2095 c-18 -13 -18 -15 -2 -21 21 -8 44 12 31 25 -6 6 -17 4
-29 -4z"/>
<path d="M2555 2040 c-3 -5 -1 -10 4 -10 6 0 11 5 11 10 0 6 -2 10 -4 10 -3 0
-8 -4 -11 -10z"/>
<path d="M2070 2000 c0 -5 5 -10 10 -10 6 0 10 5 10 10 0 6 -4 10 -10 10 -5 0
-10 -4 -10 -10z"/>
<path d="M2650 1870 c0 -5 5 -10 10 -10 6 0 10 5 10 10 0 6 -4 10 -10 10 -5 0
-10 -4 -10 -10z"/>
<path d="M1930 1860 c0 -5 5 -10 10 -10 6 0 10 5 10 10 0 6 -4 10 -10 10 -5 0
-10 -4 -10 -10z"/>
<path d="M2150 1800 c0 -5 5 -10 10 -10 6 0 10 5 10 10 0 6 -4 10 -10 10 -5 0
-10 -4 -10 -10z"/>
<path d="M2500 1775 c0 -9 8 -25 19 -36 15 -16 20 -17 29 -6 9 11 5 18 -18 36
-25 18 -30 19 -30 6z"/>
<path d="M2589 1744 c-10 -12 -10 -20 -2 -34 9 -13 9 -21 0 -31 -10 -12 -9
-12 3 -1 21 18 30 15 41 -18 6 -16 15 -30 20 -30 5 0 3 12 -5 28 -8 15 -12 40
-9 56 4 18 1 31 -8 37 -19 12 -25 11 -40 -7z"/>
<path d="M2910 1740 c0 -5 5 -10 11 -10 5 0 7 5 4 10 -3 6 -8 10 -11 10 -2 0
-4 -4 -4 -10z"/>
<path d="M6389 1713 c-13 -16 -12 -17 4 -4 9 7 17 15 17 17 0 8 -8 3 -21 -13z"/>
<path d="M2200 1700 c0 -5 5 -10 10 -10 6 0 10 5 10 10 0 6 -4 10 -10 10 -5 0
-10 -4 -10 -10z"/>
<path d="M3110 1680 c0 -5 5 -10 10 -10 6 0 10 5 10 10 0 6 -4 10 -10 10 -5 0
-10 -4 -10 -10z"/>
<path d="M6945 1680 c3 -5 8 -10 11 -10 2 0 4 5 4 10 0 6 -5 10 -11 10 -5 0
-7 -4 -4 -10z"/>
<path d="M2040 1649 c0 -5 5 -7 10 -4 6 3 10 8 10 11 0 2 -4 4 -10 4 -5 0 -10
-5 -10 -11z"/>
<path d="M2559 1643 c-13 -16 -12 -17 4 -4 16 13 21 21 13 21 -2 0 -10 -8 -17
-17z"/>
<path d="M6320 1641 c-16 -4 -26 -15 -28 -30 -3 -19 0 -22 25 -19 23 2 28 8
28 31 1 15 1 27 0 26 0 -1 -11 -4 -25 -8z"/>
<path d="M2430 1620 c0 -5 5 -10 10 -10 6 0 10 5 10 10 0 6 -4 10 -10 10 -5 0
-10 -4 -10 -10z"/>
<path d="M2529 1603 c-13 -16 -12 -17 4 -4 9 7 17 15 17 17 0 8 -8 3 -21 -13z"/>
<path d="M2846 1601 c-8 -13 4 -41 18 -41 22 0 39 18 33 34 -7 17 -42 22 -51
7z"/>
<path d="M6510 1579 c0 -11 5 -17 10 -14 6 3 10 13 10 21 0 8 -4 14 -10 14 -5
0 -10 -9 -10 -21z"/>
<path d="M2493 1566 c-13 -7 -20 -16 -17 -19 4 -4 -5 -11 -20 -16 -29 -12 -36
-45 -11 -55 28 -10 47 5 42 33 -4 18 1 33 16 49 23 25 22 25 -10 8z"/>
<path d="M7110 1560 c0 -5 5 -10 10 -10 6 0 10 5 10 10 0 6 -4 10 -10 10 -5 0
-10 -4 -10 -10z"/>
<path d="M2820 1550 c0 -5 5 -10 10 -10 6 0 10 5 10 10 0 6 -4 10 -10 10 -5 0
-10 -4 -10 -10z"/>
<path d="M3070 1550 c0 -5 5 -10 10 -10 6 0 10 5 10 10 0 6 -4 10 -10 10 -5 0
-10 -4 -10 -10z"/>
<path d="M6479 1543 c-13 -16 -12 -17 4 -4 16 13 21 21 13 21 -2 0 -10 -8 -17
-17z"/>
<path d="M2895 1520 c9 -16 18 -30 21 -30 2 0 -2 14 -11 30 -9 17 -18 30 -21
30 -2 0 2 -13 11 -30z"/>
<path d="M6434 1508 l-19 -23 23 19 c21 18 27 26 19 26 -2 0 -12 -10 -23 -22z"/>
<path d="M2650 1470 c0 -5 5 -10 10 -10 6 0 10 5 10 10 0 6 -4 10 -10 10 -5 0
-10 -4 -10 -10z"/>
<path d="M6374 1458 l-19 -23 23 19 c21 18 27 26 19 26 -2 0 -12 -10 -23 -22z"/>
<path d="M2550 1408 c41 -45 50 -53 50 -45 0 2 -21 23 -47 47 l-48 45 45 -47z"/>
<path d="M6232 1408 c-27 -27 -8 -82 30 -83 13 -1 30 -5 38 -10 8 -5 11 -4 6
3 -4 6 -1 20 6 31 19 31 -4 71 -40 71 -15 0 -33 -5 -40 -12z"/>
<path d="M3295 1360 c-3 -5 -1 -10 4 -10 6 0 11 5 11 10 0 6 -2 10 -4 10 -3 0
-8 -4 -11 -10z"/>
<path d="M2500 1340 c0 -5 5 -10 10 -10 6 0 10 5 10 10 0 6 -4 10 -10 10 -5 0
-10 -4 -10 -10z"/>
<path d="M2820 1335 c-11 -13 -10 -14 4 -9 9 3 16 10 16 15 0 13 -6 11 -20 -6z"/>
<path d="M2990 1333 c0 -5 9 -19 20 -33 l20 -25 -12 33 c-11 28 -28 44 -28 25z"/>
<path d="M3176 1304 c-31 -31 -8 -68 38 -62 15 2 34 -6 50 -21 14 -14 26 -21
26 -17 0 5 -11 17 -25 28 -14 11 -25 29 -25 42 0 42 -36 59 -64 30z"/>
<path d="M3480 1300 c0 -5 5 -10 10 -10 6 0 10 5 10 10 0 6 -4 10 -10 10 -5 0
-10 -4 -10 -10z"/>
<path d="M3556 1293 c-11 -11 -6 -23 9 -23 8 0 15 4 15 9 0 13 -16 22 -24 14z"/>
<path d="M2685 1270 c10 -11 23 -20 28 -20 6 0 0 9 -13 20 -13 11 -25 20 -28
20 -3 0 3 -9 13 -20z"/>
<path d="M5893 1283 c-7 -3 -13 -16 -13 -29 0 -20 5 -24 28 -24 18 0 38 -11
57 -30 16 -16 33 -30 37 -30 5 0 -7 14 -27 31 -19 17 -35 39 -35 50 0 20 -28
39 -47 32z"/>
<path d="M6506 1264 c-8 -22 -8 -24 8 -24 21 0 28 16 12 29 -11 9 -15 8 -20
-5z"/>
<path d="M6775 1260 c-3 -5 -1 -10 4 -10 6 0 11 5 11 10 0 6 -2 10 -4 10 -3 0
-8 -4 -11 -10z"/>
<path d="M3718 1253 c7 -3 16 -2 19 1 4 3 -2 6 -13 5 -11 0 -14 -3 -6 -6z"/>
<path d="M2670 1240 c0 -5 5 -10 10 -10 6 0 10 5 10 10 0 6 -4 10 -10 10 -5 0
-10 -4 -10 -10z"/>
<path d="M3590 1234 c0 -18 47 -108 52 -98 2 5 -8 32 -23 59 -16 28 -29 45
-29 39z"/>
<path d="M6337 1205 c-9 -19 -12 -35 -7 -35 15 0 12 -21 -7 -44 -18 -21 -18
-21 3 -3 14 12 30 15 50 11 38 -7 68 15 69 52 1 35 -20 53 -61 54 -25 0 -33
-6 -47 -35z"/>
<path d="M3567 1223 c-4 -3 -7 -26 -7 -50 0 -42 -1 -44 -27 -41 -14 2 -28 -2
-30 -9 -3 -8 6 -11 24 -10 26 2 28 -1 29 -40 1 -24 -2 -43 -8 -43 -6 0 -8 6
-5 14 6 16 -14 28 -31 17 -7 -4 -5 -20 8 -49 13 -28 24 -41 31 -36 7 4 9 3 5
-4 -15 -25 65 -72 99 -58 9 3 13 2 10 -4 -4 -6 7 -10 24 -10 28 0 31 -3 31
-29 0 -35 13 -45 60 -46 32 0 35 2 36 28 1 16 7 33 15 38 11 7 9 9 -7 9 -11 0
-29 10 -40 22 -10 12 -14 19 -8 15 6 -3 24 7 39 23 16 17 26 30 22 30 -3 0
-18 -12 -32 -27 -14 -15 -26 -23 -26 -18 -1 6 -2 16 -3 24 0 8 -8 17 -16 19
-12 4 -13 2 -3 -9 6 -8 9 -20 4 -27 -10 -16 -45 44 -37 64 3 9 2 12 -5 9 -6
-4 -13 2 -16 14 -3 12 -10 21 -15 21 -6 0 -7 11 -4 25 4 14 2 25 -3 25 -10 0
-23 -31 -20 -46 6 -33 -4 -53 -29 -62 -35 -12 -57 3 -57 38 0 17 8 29 25 37
l25 12 -27 -5 c-22 -5 -28 -2 -28 10 0 13 8 16 35 13 19 -3 35 0 35 4 0 5 -16
9 -36 9 l-36 0 4 55 c1 30 3 55 2 55 0 0 -4 -3 -7 -7z m-17 -223 c0 -5 -2 -10
-4 -10 -3 0 -8 5 -11 10 -3 6 -1 10 4 10 6 0 11 -4 11 -10z m98 -9 c-2 -5 6
-17 17 -26 16 -13 14 -13 -12 1 -23 13 -29 21 -20 26 16 10 18 10 15 -1z m54
-33 c-7 -7 -12 -8 -12 -2 0 14 12 26 19 19 2 -3 -1 -11 -7 -17z m-67 -28 c3
-6 -1 -7 -9 -4 -18 7 -21 14 -7 14 6 0 13 -4 16 -10z"/>
<path d="M6940 1219 c0 -5 5 -7 10 -4 6 3 10 8 10 11 0 2 -4 4 -10 4 -5 0 -10
-5 -10 -11z"/>
<path d="M5217 1214 c-3 -3 -3 -12 0 -20 4 -11 9 -12 19 -3 8 6 11 15 8 20 -6
10 -18 12 -27 3z"/>
<path d="M3300 1194 c0 -5 9 -15 20 -22 11 -7 20 -21 20 -32 0 -11 5 -20 12
-20 6 0 21 -8 32 -17 12 -10 15 -11 9 -3 -7 8 -13 22 -13 32 0 10 -8 21 -17
25 -10 3 -28 15 -40 26 -13 11 -23 16 -23 11z"/>
<path d="M2791 1172 c-15 -28 2 -44 40 -40 35 3 52 15 42 31 -3 5 -10 3 -15
-4 -7 -11 -11 -11 -15 -1 -2 7 -13 17 -23 22 -15 8 -21 6 -29 -8z"/>
<path d="M2897 1154 c2 -7 0 -15 -6 -19 -15 -8 -14 -48 1 -63 15 -15 53 -16
79 -2 41 22 10 85 -45 92 -23 2 -32 0 -29 -8z"/>
<path d="M3030 1160 c0 -5 5 -10 10 -10 6 0 10 5 10 10 0 6 -4 10 -10 10 -5 0
-10 -4 -10 -10z"/>
<path d="M3086 1157 c3 -10 9 -15 12 -12 3 3 0 11 -7 18 -10 9 -11 8 -5 -6z"/>
<path d="M3265 1160 c4 -6 11 -8 16 -5 14 9 11 15 -7 15 -8 0 -12 -5 -9 -10z"/>
<path d="M6028 1159 c-36 -20 -16 -79 27 -79 19 0 64 39 47 41 -4 0 2 4 13 9
18 8 18 9 2 9 -10 1 -25 8 -33 16 -18 17 -32 18 -56 4z"/>
<path d="M5385 1140 c3 -5 8 -10 11 -10 2 0 4 5 4 10 0 6 -5 10 -11 10 -5 0
-7 -4 -4 -10z"/>
<path d="M3106 1117 c3 -10 9 -15 12 -12 3 3 0 11 -7 18 -10 9 -11 8 -5 -6z"/>
<path d="M4657 1102 c-22 -25 -21 -45 3 -67 17 -15 24 -16 45 -7 44 20 27 92
-23 92 -5 0 -16 -8 -25 -18z"/>
<path d="M5590 1099 c0 -5 5 -7 10 -4 6 3 10 8 10 11 0 2 -4 4 -10 4 -5 0 -10
-5 -10 -11z"/>
<path d="M6128 1103 c7 -3 16 -2 19 1 4 3 -2 6 -13 5 -11 0 -14 -3 -6 -6z"/>
<path d="M6250 1095 c-26 -31 18 -71 47 -42 19 19 8 57 -16 57 -10 0 -24 -7
-31 -15z"/>
<path d="M2600 1090 c0 -5 5 -10 10 -10 6 0 10 5 10 10 0 6 -4 10 -10 10 -5 0
-10 -4 -10 -10z"/>
<path d="M3032 1081 c-11 -6 -10 -10 4 -15 20 -8 32 0 18 14 -5 5 -15 5 -22 1z"/>
<path d="M3630 1072 c0 -9 -9 -23 -20 -30 -11 -7 -20 -18 -20 -25 0 -6 5 -4
11 6 5 9 17 17 24 17 9 0 15 10 15 25 0 14 -2 25 -5 25 -3 0 -5 -8 -5 -18z"/>
<path d="M3136 1055 c12 -63 24 -72 45 -34 6 12 7 19 2 16 -12 -7 -27 3 -41
28 -11 18 -12 16 -6 -10z"/>
<path d="M3414 1059 c8 -12 12 -28 9 -35 -4 -10 0 -12 11 -8 14 5 14 9 -5 35
-11 16 -23 29 -25 29 -3 0 2 -10 10 -21z"/>
<path d="M4115 1063 c-11 -11 -15 -24 -10 -42 3 -14 7 -34 8 -43 1 -12 5 -14
11 -8 6 6 23 10 38 10 37 0 57 38 40 75 -14 30 -61 34 -87 8z"/>
<path d="M3200 1049 c0 -5 5 -7 10 -4 6 3 10 8 10 11 0 2 -4 4 -10 4 -5 0 -10
-5 -10 -11z"/>
<path d="M4800 1036 c0 -2 20 -11 45 -19 54 -19 60 -13 9 8 -36 15 -54 19 -54
11z"/>
<path d="M5220 1024 c0 -8 5 -12 10 -9 6 4 8 11 5 16 -9 14 -15 11 -15 -7z"/>
<path d="M3450 1006 c0 -2 8 -10 18 -17 15 -13 16 -12 3 4 -13 16 -21 21 -21
13z"/>
<path d="M3750 1006 c0 -2 9 -6 20 -9 11 -3 18 -1 14 4 -5 9 -34 13 -34 5z"/>
<path d="M3980 1000 c0 -5 5 -10 10 -10 6 0 10 5 10 10 0 6 -4 10 -10 10 -5 0
-10 -4 -10 -10z"/>
<path d="M4396 997 c-22 -16 -18 -75 7 -91 13 -8 24 -7 46 5 29 17 29 17 35
-13 4 -19 1 -37 -6 -47 -11 -14 -11 -14 3 -3 10 7 28 10 48 6 66 -14 103 66
50 109 -23 18 -70 16 -77 -4 -8 -20 -23 -7 -20 17 3 24 -1 27 -32 30 -20 2
-44 -2 -54 -9z"/>
<path d="M4900 1006 c0 -2 7 -7 16 -10 8 -3 12 -2 9 4 -6 10 -25 14 -25 6z"/>
<path d="M4947 1003 c-14 -13 -6 -34 16 -42 24 -9 37 2 37 32 0 17 -39 25 -53
10z"/>
<path d="M4610 990 c0 -5 5 -10 10 -10 6 0 10 5 10 10 0 6 -4 10 -10 10 -5 0
-10 -4 -10 -10z"/>
<path d="M4742 959 c6 -16 13 -28 15 -25 8 8 -6 56 -17 56 -5 0 -5 -13 2 -31z"/>
<path d="M3290 966 c0 -2 7 -7 16 -10 8 -3 12 -2 9 4 -6 10 -25 14 -25 6z"/>
<path d="M3480 966 c0 -2 8 -10 18 -17 15 -13 16 -12 3 4 -13 16 -21 21 -21
13z"/>
<path d="M4890 960 c0 -5 7 -10 16 -10 8 0 12 5 9 10 -3 6 -10 10 -16 10 -5 0
-9 -4 -9 -10z"/>
<path d="M5171 944 c0 -11 3 -14 6 -6 3 7 2 16 -1 19 -3 4 -6 -2 -5 -13z"/>
<path d="M5430 950 c0 -5 5 -10 10 -10 6 0 10 5 10 10 0 6 -4 10 -10 10 -5 0
-10 -4 -10 -10z"/>
<path d="M2710 939 c0 -5 5 -7 10 -4 6 3 10 8 10 11 0 2 -4 4 -10 4 -5 0 -10
-5 -10 -11z"/>
<path d="M4928 925 c-6 -13 -15 -22 -21 -18 -6 3 -7 1 -3 -6 4 -6 0 -23 -8
-36 -9 -14 -12 -25 -6 -25 13 0 39 40 50 79 10 37 4 41 -12 6z"/>
<path d="M5472 941 c-22 -13 -10 -46 18 -49 14 -2 32 -9 40 -15 12 -9 13 -9 3
3 -7 8 -13 24 -13 36 0 12 -7 25 -16 28 -19 7 -16 8 -32 -3z"/>
<path d="M2905 930 c4 -6 11 -8 16 -5 14 9 11 15 -7 15 -8 0 -12 -5 -9 -10z"/>
<path d="M4000 930 c0 -5 5 -10 10 -10 6 0 10 5 10 10 0 6 -4 10 -10 10 -5 0
-10 -4 -10 -10z"/>
<path d="M4171 926 c-7 -8 -11 -27 -9 -42 6 -52 82 -50 90 2 7 44 -54 73 -81
40z"/>
<path d="M4645 930 c-3 -6 1 -13 10 -16 19 -8 30 0 20 15 -8 14 -22 14 -30 1z"/>
<path d="M3510 926 c0 -2 8 -10 18 -17 15 -13 16 -12 3 4 -13 16 -21 21 -21
13z"/>
<path d="M3230 910 c0 -5 5 -10 11 -10 5 0 7 5 4 10 -3 6 -8 10 -11 10 -2 0
-4 -4 -4 -10z"/>
<path d="M5161 904 c0 -11 3 -14 6 -6 3 7 2 16 -1 19 -3 4 -6 -2 -5 -13z"/>
<path d="M5938 908 c-29 -24 -28 -44 3 -46 26 -2 29 1 29 28 0 33 -8 37 -32
18z"/>
<path d="M4730 907 c0 -2 10 -15 21 -28 21 -24 21 -24 15 -1 -4 12 -3 22 3 22
9 0 27 -40 22 -49 -2 -2 4 -8 12 -13 11 -6 14 -19 10 -50 -4 -36 -14 -52 -57
-91 l-51 -49 54 44 c44 35 62 43 95 43 34 0 43 4 54 28 12 25 11 29 -15 52
-16 14 -35 22 -45 19 -10 -3 -18 -1 -18 5 0 21 -53 71 -76 71 -13 0 -24 -2
-24 -3z"/>
<path d="M5693 903 c9 -2 25 -2 35 0 9 3 1 5 -18 5 -19 0 -27 -2 -17 -5z"/>
<path d="M3542 884 c-28 -19 -29 -58 -1 -77 21 -15 59 -12 71 7 13 19 9 54 -8
70 -19 20 -34 20 -62 0z"/>
<path d="M4065 889 c-4 -6 -5 -12 -2 -15 2 -3 7 2 10 11 7 17 1 20 -8 4z"/>
<path d="M4823 893 c9 -2 23 -2 30 0 6 3 -1 5 -18 5 -16 0 -22 -2 -12 -5z"/>
<path d="M3120 880 c0 -5 5 -10 10 -10 6 0 10 5 10 10 0 6 -4 10 -10 10 -5 0
-10 -4 -10 -10z"/>
<path d="M4345 880 c3 -5 8 -10 11 -10 2 0 4 5 4 10 0 6 -5 10 -11 10 -5 0 -7
-4 -4 -10z"/>
<path d="M4034 850 c0 -13 4 -16 10 -10 7 7 7 13 0 20 -6 6 -10 3 -10 -10z"/>
<path d="M5873 856 c0 -8 6 -12 14 -9 7 3 10 9 7 14 -8 14 -21 11 -21 -5z"/>
<path d="M6090 860 c0 -5 5 -10 11 -10 5 0 7 5 4 10 -3 6 -8 10 -11 10 -2 0
-4 -4 -4 -10z"/>
<path d="M5125 850 c-3 -5 1 -10 10 -10 9 0 13 5 10 10 -3 6 -8 10 -10 10 -2
0 -7 -4 -10 -10z"/>
<path d="M3416 830 c-18 -6 -17 -8 11 -22 29 -14 30 -14 25 4 -6 24 -13 27
-36 18z"/>
<path d="M4135 830 c-3 -5 -1 -10 4 -10 6 0 11 5 11 10 0 6 -2 10 -4 10 -3 0
-8 -4 -11 -10z"/>
<path d="M5605 790 c10 -11 20 -20 23 -20 3 0 -3 9 -13 20 -10 11 -20 20 -23
20 -3 0 3 -9 13 -20z"/>
<path d="M3855 770 c17 -19 31 -37 33 -39 1 -2 4 -2 7 1 3 2 -12 20 -33 39
l-37 34 30 -35z"/>
<path d="M4500 790 c0 -5 5 -10 10 -10 6 0 10 5 10 10 0 6 -4 10 -10 10 -5 0
-10 -4 -10 -10z"/>
<path d="M3619 772 c6 -9 22 -30 36 -47 l27 -30 -21 32 c-12 17 -21 36 -21 41
0 5 -7 12 -15 16 -12 4 -13 2 -6 -12z"/>
<path d="M4387 752 c-31 -32 -45 -39 -80 -40 -42 -2 -76 -29 -77 -59 0 -20 38
-53 60 -53 32 0 61 36 54 66 -6 21 1 34 42 75 26 27 46 49 43 49 -3 0 -22 -17
-42 -38z"/>
<path d="M5535 780 c-3 -5 -1 -10 4 -10 6 0 11 5 11 10 0 6 -2 10 -4 10 -3 0
-8 -4 -11 -10z"/>
<path d="M2820 760 c0 -5 5 -10 11 -10 5 0 7 5 4 10 -3 6 -8 10 -11 10 -2 0
-4 -4 -4 -10z"/>
<path d="M3985 760 c-3 -5 -12 -7 -21 -3 -12 4 -14 0 -8 -21 8 -31 -17 -46
-44 -25 -15 12 -16 12 -6 -1 14 -19 25 -62 14 -55 -5 3 -20 1 -35 -5 -19 -7
-31 -7 -40 0 -9 7 -15 7 -19 1 -4 -5 -2 -13 4 -16 16 -10 -8 -35 -31 -35 -14
0 -19 8 -20 28 -2 24 -2 25 -6 4 -3 -13 -13 -32 -24 -43 -31 -31 -10 -78 35
-79 11 0 31 -14 45 -31 20 -24 37 -32 72 -36 82 -9 134 60 109 144 -9 28 -21
43 -42 52 -25 11 -28 15 -15 23 9 5 14 15 11 23 -4 8 3 31 15 50 11 19 18 35
16 35 -2 0 -6 -4 -10 -10z m-17 -212 c2 -38 -1 -69 -5 -70 -27 -5 -71 -6 -90
-2 -21 4 -23 10 -23 68 0 34 3 66 7 70 4 4 30 6 58 4 l50 -3 3 -67z"/>
<path d="M3890 555 c-17 -20 -5 -45 20 -45 11 0 23 7 26 15 6 15 -11 45 -26
45 -4 0 -13 -7 -20 -15z"/>
<path d="M4710 760 c0 -5 5 -10 10 -10 6 0 10 5 10 10 0 6 -4 10 -10 10 -5 0
-10 -4 -10 -10z"/>
<path d="M5648 759 c-24 -13 -23 -46 1 -59 24 -12 51 -3 51 18 0 8 8 25 18 36
16 20 16 20 -1 7 -14 -11 -21 -11 -29 -3 -14 14 -18 14 -40 1z"/>
<path d="M3495 741 c-3 -5 -2 -12 3 -15 5 -3 9 1 9 9 0 17 -3 19 -12 6z"/>
<path d="M3010 730 c0 -5 5 -10 10 -10 6 0 10 5 10 10 0 6 -4 10 -10 10 -5 0
-10 -4 -10 -10z"/>
<path d="M4940 736 c0 -2 7 -7 16 -10 8 -3 12 -2 9 4 -6 10 -25 14 -25 6z"/>
<path d="M5070 705 c-25 -27 -26 -57 -2 -78 51 -47 137 20 94 73 -24 30 -66
32 -92 5z"/>
<path d="M6235 700 c3 -5 8 -10 11 -10 2 0 4 5 4 10 0 6 -5 10 -11 10 -5 0 -7
-4 -4 -10z"/>
<path d="M6377 689 c-121 -64 -124 -238 -5 -317 82 -54 206 -23 255 63 50 88
17 212 -67 255 -51 26 -132 26 -183 -1z m143 -114 c5 -14 16 -25 24 -25 23 0
39 -36 27 -59 -25 -45 -90 -28 -82 22 0 4 -5 7 -11 7 -7 1 -3 9 9 19 19 16 20
20 7 25 -22 8 -54 7 -54 -2 0 -4 6 -17 14 -28 13 -19 12 -23 -10 -47 -29 -32
-45 -34 -68 -8 -23 25 -17 52 14 68 14 7 24 19 22 28 -3 17 0 18 51 6 31 -8
37 -7 33 5 -3 8 -1 14 5 14 5 0 14 -11 19 -25z"/>
<path d="M6380 525 c-15 -19 3 -45 31 -45 26 0 32 17 9 23 -13 3 -18 10 -14
21 8 20 -10 21 -26 1z"/>
<path d="M6505 528 c-11 -28 2 -50 27 -46 17 2 23 10 23 27 0 13 -6 26 -14 29
-9 3 -11 -2 -7 -19 7 -24 7 -24 -8 1 -13 22 -15 23 -21 8z"/>
<path d="M6420 519 c0 -5 5 -7 10 -4 6 3 10 8 10 11 0 2 -4 4 -10 4 -5 0 -10
-5 -10 -11z"/>
<path d="M4632 670 c1 -8 -3 -24 -9 -35 -6 -11 -11 -32 -11 -47 0 -24 4 -26
36 -23 19 1 41 10 48 19 17 24 6 55 -22 62 -13 4 -29 14 -34 23 -8 13 -10 13
-8 1z"/>
<path d="M3545 631 c0 -29 4 -37 21 -39 25 -4 47 19 38 41 -3 9 -18 20 -33 25
-26 9 -27 8 -26 -27z"/>
<path d="M3260 650 c0 -5 5 -10 10 -10 6 0 10 5 10 10 0 6 -4 10 -10 10 -5 0
-10 -4 -10 -10z"/>
<path d="M3717 634 c8 -13 19 -21 24 -18 15 9 10 18 -16 30 -23 11 -24 11 -8
-12z"/>
<path d="M3460 634 c0 -8 5 -12 10 -9 6 4 8 11 5 16 -9 14 -15 11 -15 -7z"/>
<path d="M4836 628 c-54 -11 -100 -49 -125 -101 -59 -122 16 -262 148 -275
125 -12 211 68 211 197 0 52 -4 65 -33 103 -52 69 -118 94 -201 76z m45 -89
c11 -5 17 -13 15 -18 -3 -4 11 -7 29 -7 40 0 80 -33 88 -70 2 -13 -1 -42 -6
-64 -10 -35 -15 -40 -42 -42 -55 -3 -77 1 -97 19 -12 10 -32 16 -51 15 -47 -3
-57 9 -64 70 -5 52 -4 55 27 81 33 28 68 34 101 16z"/>
<path d="M4854 488 l-19 -23 23 19 c12 11 22 21 22 23 0 8 -8 2 -26 -19z"/>
<path d="M5680 630 c0 -5 5 -10 11 -10 5 0 7 5 4 10 -3 6 -8 10 -11 10 -2 0
-4 -4 -4 -10z"/>
<path d="M5570 589 c0 -5 5 -7 10 -4 6 3 10 8 10 11 0 2 -4 4 -10 4 -5 0 -10
-5 -10 -11z"/>
<path d="M5187 583 c-4 -3 -7 -11 -7 -17 0 -6 5 -5 12 2 6 6 9 14 7 17 -3 3
-9 2 -12 -2z"/>
<path d="M3005 560 c3 -5 8 -10 11 -10 2 0 4 5 4 10 0 6 -5 10 -11 10 -5 0 -7
-4 -4 -10z"/>
<path d="M4390 550 c0 -5 5 -10 10 -10 6 0 10 5 10 10 0 6 -4 10 -10 10 -5 0
-10 -4 -10 -10z"/>
<path d="M5360 550 c0 -5 5 -10 10 -10 6 0 10 5 10 10 0 6 -4 10 -10 10 -5 0
-10 -4 -10 -10z"/>
<path d="M4470 540 c0 -5 5 -10 10 -10 6 0 10 5 10 10 0 6 -4 10 -10 10 -5 0
-10 -4 -10 -10z"/>
<path d="M5700 460 c0 -5 5 -10 10 -10 6 0 10 5 10 10 0 6 -4 10 -10 10 -5 0
-10 -4 -10 -10z"/>
<path d="M3370 449 c0 -5 5 -7 10 -4 6 3 10 8 10 11 0 2 -4 4 -10 4 -5 0 -10
-5 -10 -11z"/>
<path d="M4075 450 c-3 -5 -1 -10 4 -10 6 0 11 5 11 10 0 6 -2 10 -4 10 -3 0
-8 -4 -11 -10z"/>
<path d="M3695 431 c-3 -5 -1 -12 5 -16 5 -3 10 1 10 9 0 18 -6 21 -15 7z"/>
<path d="M4660 419 c0 -5 5 -7 10 -4 6 3 10 8 10 11 0 2 -4 4 -10 4 -5 0 -10
-5 -10 -11z"/>
<path d="M5480 390 c0 -5 5 -10 10 -10 6 0 10 5 10 10 0 6 -4 10 -10 10 -5 0
-10 -4 -10 -10z"/>
<path d="M5250 380 c0 -5 5 -10 10 -10 6 0 10 5 10 10 0 6 -4 10 -10 10 -5 0
-10 -4 -10 -10z"/>
<path d="M3890 320 c0 -5 4 -10 9 -10 6 0 13 5 16 10 3 6 -1 10 -9 10 -9 0
-16 -4 -16 -10z"/>
<path d="M4120 270 c0 -5 5 -10 10 -10 6 0 10 5 10 10 0 6 -4 10 -10 10 -5 0
-10 -4 -10 -10z"/>
<path d="M4955 240 c3 -5 8 -10 11 -10 2 0 4 5 4 10 0 6 -5 10 -11 10 -5 0 -7
-4 -4 -10z"/>
<path d="M4710 220 c0 -5 5 -10 11 -10 5 0 7 5 4 10 -3 6 -8 10 -11 10 -2 0
-4 -4 -4 -10z"/>
</g>
</svg>
